<svg xmlns="http://www.w3.org/2000/svg" xmlns:xlink="http://www.w3.org/1999/xlink" width="65.031" height="75.172" viewBox="0 0 65.031 75.172">
  <defs>
    <clipPath id="clip-path">
      <rect id="Прямоугольник_125" data-name="Прямоугольник 125" width="36" height="30" fill="none"/>
    </clipPath>
  </defs>
  <g id="about3" transform="translate(-1296.806 -989.097)">
    <path id="Polygon_1_copy_3" data-name="Polygon 1 copy 3" d="M1296.806,1007.891l32.516-18.793,32.516,18.793v37.586l-32.516,18.793-32.516-18.793Z" fill="#f8f8f9"/>
    <g id="Vector_Smart_Object" data-name="Vector Smart Object">
      <g id="Vector_Smart_Object-2" data-name="Vector Smart Object" transform="translate(1311 1012)">
        <g id="Сгруппировать_7630" data-name="Сгруппировать 7630">
          <g id="Сгруппировать_7629" data-name="Сгруппировать 7629" clip-path="url(#clip-path)">
            <path id="Контур_22384" data-name="Контур 22384" d="M36,30h-5.13a.163.163,0,0,1-.126-.051q-4.1-4.087-8.207-8.174a6.35,6.35,0,0,0-3.287-1.77,6.394,6.394,0,0,0-5.774,1.76q-4.11,4.087-8.217,8.177A.162.162,0,0,1,5.136,30H0c.032-.035.052-.058.074-.08q5.4-5.38,10.805-10.76a10.081,10.081,0,0,1,14.258.025q5.4,5.369,10.794,10.746c.02.02.032.053.069.051V30ZM.083,0c0,.047.038.061.063.085q5,4.98,10,9.958c.437.435.86.886,1.333,1.283a9.973,9.973,0,0,0,5.689,2.355A9.864,9.864,0,0,0,20,13.516a9.978,9.978,0,0,0,5.152-2.775L35.854.074c.021-.021.059-.033.055-.074H30.724l-.018.02Q26.62,4.086,22.532,8.15a6.233,6.233,0,0,1-5.607,1.806,6.135,6.135,0,0,1-3.438-1.771Q9.408,4.129,5.337.068C5.317.049,5.284.036,5.285,0Z" fill="#fff"/>
          </g>
        </g>
      </g>
      <path id="Color_Overlay" data-name="Color Overlay" d="M1341.743,1041.949l-8.207-8.175a6.35,6.35,0,0,0-3.287-1.769,6.215,6.215,0,0,0-2.093-.065,6.3,6.3,0,0,0-3.68,1.824q-4.109,4.088-8.216,8.177a.161.161,0,0,1-.123.057H1311c.031-.034.052-.058.074-.08l10.805-10.76a10.08,10.08,0,0,1,14.258.025q5.4,5.369,10.795,10.745c.02.02.032.053.068.051V1042h-5.131A.164.164,0,0,1,1341.743,1041.949Zm-13.575-16.269a9.978,9.978,0,0,1-5.69-2.354c-.472-.4-.9-.848-1.333-1.282q-5-4.977-10-9.958c-.024-.023-.068-.038-.063-.085h5.2c0,.036.031.049.051.068q4.074,4.059,8.151,8.118a6.132,6.132,0,0,0,3.438,1.771,6.235,6.235,0,0,0,5.607-1.806q4.1-4.053,8.174-8.131l.018-.02h5.185c0,.041-.034.052-.056.074q-5.351,5.334-10.705,10.667a10.085,10.085,0,0,1-7.127,2.976Q1328.6,1025.717,1328.169,1025.68Z" fill="#eb723b"/>
    </g>
  </g>
</svg>
