<svg xmlns="http://www.w3.org/2000/svg" xmlns:xlink="http://www.w3.org/1999/xlink" width="65.031" height="75.172" viewBox="0 0 65.031 75.172">
  <defs>
    <clipPath id="clip-path">
      <rect id="Прямоугольник_121" data-name="Прямоугольник 121" width="34" height="45" fill="none"/>
    </clipPath>
  </defs>
  <g id="Сгруппировать_7783" data-name="Сгруппировать 7783" transform="translate(-557.306 -989.097)">
    <path id="Polygon_1" data-name="Polygon 1" d="M557.306,1007.891,589.821,989.1l32.516,18.793v37.586l-32.516,18.793-32.516-18.793Z" fill="#f8f8f9"/>
    <g id="Vector_Smart_Object" data-name="Vector Smart Object">
      <g id="Vector_Smart_Object-2" data-name="Vector Smart Object" transform="translate(572 1004)">
        <g id="Сгруппировать_7622" data-name="Сгруппировать 7622">
          <g id="Сгруппировать_7621" data-name="Сгруппировать 7621" clip-path="url(#clip-path)">
            <path id="Контур_22354" data-name="Контур 22354" d="M14.718,37.467c-.66-.178-1.3-.342-1.943-.48-.324-.067-.649-.126-.976-.176-.234-.035-.237-.026-.3.2-.237.9-.47,1.807-.707,2.708l-.824,3.161c-.021.073-.05.146-.079.231-.6-.173-1.187-.339-1.774-.509q-.912-.259-1.821-.521c-.257-.073-.257-.076-.193-.333l1.333-5.229c.082-.319.164-.64.254-1-1.286-.357-2.595-.608-3.869-.986S1.28,33.823.009,33.472c-.032-.111.029-.181.061-.257q.851-1.952,1.71-3.9c.117-.266.053-.286.4-.2.868.214,1.736.43,2.6.643a1.425,1.425,0,0,0,.806-.029,1.265,1.265,0,0,0,.883-.93q1.2-4.887,2.391-9.773c.6-2.436,1.181-4.875,1.788-7.308A2,2,0,0,0,9.25,9.286c-.856-.217-1.715-.427-2.575-.643-.158-.041-.377-.017-.456-.149s.044-.31.085-.468c.3-1.129.6-2.255.9-3.38.085-.322.053-.272.348-.2,1.686.427,3.37.869,5.056,1.29.763.19,1.525.383,2.3.526.225.041.228.041.286-.181q.719-2.75,1.441-5.5c.035-.132.07-.263.108-.395.059-.211.061-.213.272-.158.97.249,1.938.5,2.908.752.1.026.2.058.31.085.318.073.3.058.213.386q-.745,2.79-1.488,5.58c-.009.029-.02.056-.026.082-.053.216-.053.225.161.275.406.093.815.181,1.224.269.5.108,1.008.211,1.514.316.2.044.207.044.257-.17q.46-1.869.918-3.737c.167-.678.333-1.36.5-2.038.05-.193.053-.2.245-.143l3.419.974c.254.073.254.076.187.339Q26.806,5.13,26.25,7.259l-.4,1.553c-.067.26-.067.263.19.345a22.6,22.6,0,0,1,3.419,1.41,10.766,10.766,0,0,1,2.788,2,5.93,5.93,0,0,1,1.663,3.152,6.7,6.7,0,0,1,.035,2.006,9.306,9.306,0,0,1-.532,2.266,5.754,5.754,0,0,1-4.1,3.611.92.92,0,0,0-.272.088c.058.09.161.111.243.158a10.039,10.039,0,0,1,2.01,1.389,5.779,5.779,0,0,1,1.94,4.778,9.763,9.763,0,0,1-.4,2.263,13.361,13.361,0,0,1-1.052,2.652,7.4,7.4,0,0,1-5.085,3.813,14.116,14.116,0,0,1-3.364.3,32.331,32.331,0,0,1-4.381-.436c-.208-.032-.21-.032-.269.178q-.82,2.952-1.634,5.9c-.1.36-.1.36-.456.246L13.37,43.9c-.3-.1-.3-.1-.219-.412l1.534-5.869a.84.84,0,0,0,.032-.149m5.36-3.579c.175,0,.351.006.526,0a7.34,7.34,0,0,0,2.139-.4,3.608,3.608,0,0,0,1.35-5.822,6.425,6.425,0,0,0-1.076-.895A13.6,13.6,0,0,0,19.6,25.24c-1.438-.456-2.914-.757-4.381-1.1-.2-.047-.213-.041-.269.184L14.5,26.17q-.754,3.119-1.508,6.234c-.056.225-.053.228.176.284,1.087.26,2.166.55,3.261.769a18.263,18.263,0,0,0,3.647.43m-2.022-21.5c-.029.091-.05.155-.067.22-.129.521-.254,1.038-.383,1.558Q16.886,17.086,16.17,20c-.061.243-.056.234.172.289.631.158,1.26.333,1.894.483a15.369,15.369,0,0,0,4.015.491,6.381,6.381,0,0,0,1.721-.29,3.367,3.367,0,0,0,1.479-5.419,5.624,5.624,0,0,0-.865-.781,9.8,9.8,0,0,0-2.277-1.167c-1.38-.518-2.817-.828-4.255-1.22" fill="#fffffe"/>
          </g>
        </g>
      </g>
      <path id="Color_Overlay" data-name="Color Overlay" d="M588.854,1049a1.127,1.127,0,0,1-.266-.067l-3.218-1.036c-.3-.1-.3-.1-.22-.411q.768-2.935,1.535-5.869a.9.9,0,0,0,.032-.149c-.661-.178-1.3-.342-1.944-.48-.324-.068-.648-.126-.976-.176-.234-.034-.237-.026-.3.2q-.355,1.355-.707,2.707-.412,1.58-.824,3.162c-.02.073-.049.146-.078.23-.6-.172-1.186-.338-1.774-.509q-.913-.256-1.821-.519c-.257-.075-.257-.077-.193-.334q.666-2.614,1.332-5.228c.082-.318.164-.64.255-1-1.286-.357-2.6-.608-3.87-.985s-2.542-.711-3.813-1.061a.22.22,0,0,1-.009-.057v-.012a.534.534,0,0,1,.07-.189c.567-1.3,1.14-2.6,1.71-3.9.117-.266.052-.285.4-.2.868.212,1.736.43,2.6.644a1.421,1.421,0,0,0,.806-.031,1.262,1.262,0,0,0,.883-.929q1.2-4.887,2.39-9.773c.6-2.435,1.181-4.874,1.788-7.309a2,2,0,0,0-1.406-2.428c-.856-.217-1.714-.427-2.574-.643-.158-.041-.377-.018-.456-.149s.044-.31.085-.468c.3-1.129.6-2.254.9-3.38.085-.321.052-.272.347-.2,1.687.428,3.37.869,5.056,1.29.762.19,1.526.383,2.3.526.225.041.229.041.286-.182q.72-2.75,1.441-5.5c.035-.131.07-.264.108-.4s.052-.185.114-.188h.013a.787.787,0,0,1,.144.031q1.455.373,2.908.752c.1.026.205.058.31.085.318.073.3.058.213.386q-.745,2.789-1.488,5.579c-.009.029-.021.056-.027.082-.052.217-.052.225.161.275.406.094.815.181,1.224.269.5.108,1.009.211,1.515.315.2.044.207.044.257-.169q.46-1.868.918-3.737c.167-.679.333-1.36.5-2.039.049-.193.052-.2.245-.143l3.419.974c.255.073.255.076.187.339q-.556,2.132-1.113,4.261-.2.776-.4,1.552c-.068.26-.068.264.19.345a22.626,22.626,0,0,1,3.419,1.41,10.748,10.748,0,0,1,2.788,2,5.934,5.934,0,0,1,1.663,3.152,6.722,6.722,0,0,1,.035,2.006,9.344,9.344,0,0,1-.532,2.266,5.759,5.759,0,0,1-4.1,3.612.881.881,0,0,0-.272.088c.058.089.16.111.242.156a10.084,10.084,0,0,1,2.011,1.391,5.778,5.778,0,0,1,1.94,4.778,9.689,9.689,0,0,1-.4,2.262,13.312,13.312,0,0,1-1.052,2.653,7.4,7.4,0,0,1-5.085,3.814,14.063,14.063,0,0,1-3.363.3,32.2,32.2,0,0,1-4.381-.435c-.207-.032-.21-.032-.268.178q-.821,2.953-1.633,5.9c-.064.229-.086.313-.187.314Zm3.75-11.112a7.358,7.358,0,0,0,2.139-.4,3.609,3.609,0,0,0,1.35-5.823,6.479,6.479,0,0,0-1.076-.895,13.563,13.563,0,0,0-3.42-1.529c-1.437-.456-2.913-.757-4.38-1.1-.2-.049-.213-.042-.269.184q-.223.922-.446,1.841-.755,3.119-1.508,6.236c-.056.224-.052.227.175.283,1.087.26,2.165.55,3.262.769a18.323,18.323,0,0,0,3.647.43C592.253,1037.888,592.429,1037.893,592.6,1037.888Zm-2.616-21.277c-.128.52-.254,1.038-.383,1.559q-.718,2.916-1.435,5.834c-.061.242-.056.234.172.289.632.158,1.26.334,1.894.483a15.412,15.412,0,0,0,4.016.49,6.32,6.32,0,0,0,1.722-.29,3.367,3.367,0,0,0,1.479-5.418,5.686,5.686,0,0,0-.865-.781,9.844,9.844,0,0,0-2.277-1.166c-1.38-.518-2.817-.828-4.255-1.22C590.026,1016.483,590.006,1016.546,589.988,1016.611Z" fill="#eb723b"/>
    </g>
  </g>
</svg>
