<svg xmlns="http://www.w3.org/2000/svg" xmlns:xlink="http://www.w3.org/1999/xlink" width="18" height="18" viewBox="0 0 18 18">
  <defs>
    <clipPath id="clip-path">
      <rect id="Прямоугольник_151" data-name="Прямоугольник 151" width="18" height="18" transform="translate(0 0)" fill="none"/>
    </clipPath>
  </defs>
  <g id="Vector_Smart_Object" data-name="Vector Smart Object" transform="translate(0 0)">
    <g id="Сгруппировать_7776" data-name="Сгруппировать 7776">
      <g id="Сгруппировать_7775" data-name="Сгруппировать 7775" clip-path="url(#clip-path)">
        <path id="Контур_22535" data-name="Контур 22535" d="M4.081,7.789a7.165,7.165,0,0,1,.468-.74C3.757,5.554,2.917,4.171,2.213,3.093,1.291,1.672.612.771.612.771s.714.873,1.693,2.257C3.032,4.052,3.9,5.36,4.739,6.786A10.262,10.262,0,0,1,7.322,4.5,25.949,25.949,0,0,0,0,0,15.376,15.376,0,0,1,.467,3.344c.162,3.621-.281,9,3.386,10.514a7.135,7.135,0,0,1,.228-6.069" fill="#64b900"/>
        <path id="Контур_22536" data-name="Контур 22536" d="M5.032,14.554c-.034.061-.069.123-.1.183-.122.214-.23.426-.323.632s-.194.4-.266.586l-.211.53c-.055.168-.105.323-.15.463-.1.276-.134.511-.178.663l-.057.238.8.15.044-.216c.035-.139.055-.35.137-.609.037-.13.078-.274.122-.432l.177-.5c.059-.18.144-.366.228-.562s.175-.4.283-.612.213-.432.34-.653.251-.453.4-.683.288-.469.45-.705.323-.479.5-.72A32.868,32.868,0,0,1,9.576,9.416a54.928,54.928,0,0,1,5.05-4.837c1.456-1.235,2.482-1.987,2.482-1.987s-1,.784-2.422,2.064a54.992,54.992,0,0,0-4.9,4.993,32.77,32.77,0,0,0-2.268,2.964c-.168.246-.328.49-.477.735s-.3.481-.427.719-.262.468-.377.7c-.1.187-.188.372-.27.554,7.806,3.133,9.063-4.992,10.568-9.857A17.249,17.249,0,0,1,18,1.931S-.138,3.8,5.032,14.554" fill="#64b900"/>
      </g>
    </g>
  </g>
</svg>
