<svg xmlns="http://www.w3.org/2000/svg" xmlns:xlink="http://www.w3.org/1999/xlink" width="37" height="12" viewBox="0 0 37 12">
  <defs>
    <clipPath id="clip-path">
      <rect id="Прямоугольник_127" data-name="Прямоугольник 127" width="37" height="12" transform="translate(0 0)" fill="none"/>
    </clipPath>
  </defs>
  <g id="Vector_Smart_Object" data-name="Vector Smart Object" transform="translate(-596 -1788)" opacity="0.8">
    <g id="Vector_Smart_Object-2" data-name="Vector Smart Object" transform="translate(596 1788)">
      <path id="Контур_22386" data-name="Контур 22386" d="M16.04,11.8H13.021L14.908.207h3.019Z" fill="#0066b2"/>
      <g id="Сгруппировать_7634" data-name="Сгруппировать 7634">
        <g id="Сгруппировать_7633" data-name="Сгруппировать 7633" clip-path="url(#clip-path)">
          <path id="Контур_22387" data-name="Контур 22387" d="M10.481.208,7.6,8.181,7.262,6.464h0L6.246,1.252A1.292,1.292,0,0,0,4.814.208H.056L0,.4A11.281,11.281,0,0,1,3.158,1.729L5.781,11.8H8.927L13.73.208Z" fill="#0066b2"/>
          <path id="Контур_22388" data-name="Контур 22388" d="M34.228,11.8H37L34.583.208H32.156a1.387,1.387,0,0,0-1.394.864L26.259,11.8h3.147l.629-1.722h3.838ZM30.906,7.7l1.586-4.338L33.385,7.7Z" fill="#0066b2"/>
          <path id="Контур_22389" data-name="Контур 22389" d="M26.5,3l.431-2.49A8.719,8.719,0,0,0,24.211,0c-1.5,0-5.056.655-5.056,3.838,0,3,4.176,3.033,4.176,4.605s-3.745,1.291-4.981.3l-.449,2.6A8.46,8.46,0,0,0,21.308,12c2.06,0,5.169-1.067,5.169-3.969,0-3.014-4.214-3.295-4.214-4.605S25.2,2.284,26.5,3" fill="#0066b2"/>
          <path id="Контур_22390" data-name="Контур 22390" d="M7.262,6.465,6.246,1.252A1.292,1.292,0,0,0,4.814.208H.056L0,.4A11.7,11.7,0,0,1,4.481,2.653,9.042,9.042,0,0,1,7.262,6.465" fill="#f9a533"/>
        </g>
      </g>
    </g>
    <path id="Color_Overlay" data-name="Color Overlay" d="M613.9,1799.346l.449-2.6c1.236.992,4.982,1.273,4.982-.3s-4.176-1.61-4.176-4.605c0-3.182,3.558-3.838,5.056-3.838a8.711,8.711,0,0,1,2.715.506l-.431,2.489c-1.292-.712-4.232-.88-4.232.431s4.214,1.59,4.214,4.605c0,2.9-3.109,3.968-5.169,3.968A8.468,8.468,0,0,1,613.9,1799.346Zm16.328.455-.354-1.723h-3.839l-.629,1.723h-3.147l4.5-10.73a1.386,1.386,0,0,1,1.393-.863h2.428L633,1799.8Zm-3.322-4.1h2.479l-.893-4.338Zm-17.886,4.1,1.887-11.593h3.02L612.04,1799.8Zm-7.24,0-2.623-10.072A11.3,11.3,0,0,0,596,1788.4l.056-.2h4.758a1.292,1.292,0,0,1,1.432,1.044l1.016,5.213h0l.34,1.717,2.878-7.973h3.25l-4.8,11.593Z" fill="#2e2e33" style="mix-blend-mode: color;isolation: isolate"/>
  </g>
</svg>
