<svg xmlns="http://www.w3.org/2000/svg" xmlns:xlink="http://www.w3.org/1999/xlink" width="41.001" height="17" viewBox="0 0 41.001 17">
  <defs>
    <clipPath id="clip-path">
      <rect id="Прямоугольник_135" data-name="Прямоугольник 135" width="41" height="17" fill="none"/>
    </clipPath>
  </defs>
  <g id="f4" transform="translate(-737 -1786)" opacity="0.8">
    <g id="Vector_Smart_Object" data-name="Vector Smart Object" transform="translate(737 1786)">
      <g id="Сгруппировать_7646" data-name="Сгруппировать 7646">
        <g id="Сгруппировать_7645" data-name="Сгруппировать 7645" clip-path="url(#clip-path)">
          <path id="Контур_22402" data-name="Контур 22402" d="M19.39,8.305v4.983H17.876V.982h4.015a3.549,3.549,0,0,1,2.6,1.065,3.5,3.5,0,0,1,1.086,2.6,3.48,3.48,0,0,1-1.086,2.612,3.537,3.537,0,0,1-2.6,1.048h-2.5Zm0-5.808v4.3h2.539a1.959,1.959,0,0,0,1.5-.636,2.163,2.163,0,0,0,.04-2.966l-.04-.042a1.934,1.934,0,0,0-1.5-.653H19.39Z" fill="#5f6368"/>
          <path id="Контур_22403" data-name="Контур 22403" d="M29.067,4.594a3.657,3.657,0,0,1,2.65.937,3.4,3.4,0,0,1,.97,2.569v5.189H31.239V12.12h-.066a2.865,2.865,0,0,1-2.5,1.443,3.17,3.17,0,0,1-2.23-.825,2.684,2.684,0,0,1-.9-2.062A2.543,2.543,0,0,1,26.491,8.6a3.882,3.882,0,0,1,2.526-.774,4.316,4.316,0,0,1,2.221.515V7.978a1.833,1.833,0,0,0-.625-1.4A2.093,2.093,0,0,0,29.151,6,2.293,2.293,0,0,0,27.144,7.12L25.81,6.243a3.661,3.661,0,0,1,3.257-1.65m-1.959,6.117a1.281,1.281,0,0,0,.5,1.031,1.8,1.8,0,0,0,1.176.412,2.364,2.364,0,0,0,1.7-.738,2.356,2.356,0,0,0,.752-1.735,3,3,0,0,0-1.975-.589,2.483,2.483,0,0,0-1.538.464A1.4,1.4,0,0,0,27.108,10.711Z" fill="#5f6368"/>
          <path id="Контур_22404" data-name="Контур 22404" d="M41,4.869,35.945,17H34.382l1.876-4.245L32.933,4.869h1.646l2.4,6.048h.033l2.337-6.048Z" fill="#5f6368"/>
          <path id="Контур_22405" data-name="Контур 22405" d="M13.272,7.231a8.79,8.79,0,0,0-.117-1.437H6.77V8.516h3.657a3.285,3.285,0,0,1-1.352,2.148v1.767h2.183a7.071,7.071,0,0,0,2.014-5.2" fill="#4285f4"/>
          <path id="Контур_22406" data-name="Контур 22406" d="M6.77,14.14a6.322,6.322,0,0,0,4.487-1.707L9.075,10.666a3.935,3.935,0,0,1-2.3.676,4.073,4.073,0,0,1-3.8-2.918H.721v1.821a6.746,6.746,0,0,0,6.049,3.9" fill="#34a853"/>
          <path id="Контур_22407" data-name="Контур 22407" d="M2.969,8.423a4.414,4.414,0,0,1,0-2.706V3.9H.721a7.349,7.349,0,0,0,0,6.349Z" fill="#fbbc04"/>
          <path id="Контур_22408" data-name="Контур 22408" d="M6.77,2.8a3.592,3.592,0,0,1,2.6,1.06L11.3,1.842A6.356,6.356,0,0,0,6.77,0,6.746,6.746,0,0,0,.721,3.9L2.969,5.717A4.073,4.073,0,0,1,6.77,2.8" fill="#ea4335"/>
        </g>
      </g>
    </g>
    <path id="Color_Overlay" data-name="Color Overlay" d="M771.382,1803l1.876-4.244-3.324-7.887h1.645l2.4,6.048h.032l2.337-6.048H778L772.944,1803Zm-33.661-6.755a7.349,7.349,0,0,1,0-6.349,6.745,6.745,0,0,1,6.05-3.9,6.358,6.358,0,0,1,4.53,1.841l-1.932,2.018a3.6,3.6,0,0,0-2.6-1.06,4.074,4.074,0,0,0-3.8,2.918,4.426,4.426,0,0,0,0,2.706,4.075,4.075,0,0,0,3.8,2.919,3.936,3.936,0,0,0,2.3-.676h0a3.289,3.289,0,0,0,1.352-2.148h-3.657v-2.723h6.385a8.841,8.841,0,0,1,.117,1.438,7.071,7.071,0,0,1-2.014,5.2h0a6.323,6.323,0,0,1-4.487,1.706A6.747,6.747,0,0,1,737.721,1796.244Zm25.721,2.494a2.685,2.685,0,0,1-.9-2.062,2.546,2.546,0,0,1,.946-2.079,3.887,3.887,0,0,1,2.526-.773,4.316,4.316,0,0,1,2.221.515v-.361a1.832,1.832,0,0,0-.625-1.4,2.091,2.091,0,0,0-1.462-.576,2.293,2.293,0,0,0-2.007,1.117l-1.334-.877a4.112,4.112,0,0,1,5.907-.713,3.4,3.4,0,0,1,.97,2.569v5.189h-1.448v-1.168h-.066a2.866,2.866,0,0,1-2.5,1.443A3.17,3.17,0,0,1,763.442,1798.738Zm1.286-3.182a1.4,1.4,0,0,0-.62,1.155,1.282,1.282,0,0,0,.5,1.031,1.8,1.8,0,0,0,1.176.412,2.551,2.551,0,0,0,2.455-2.473,3,3,0,0,0-1.975-.589A2.487,2.487,0,0,0,764.728,1795.556Zm-9.852,3.732v-12.306h4.016a3.546,3.546,0,0,1,2.6,1.065,3.652,3.652,0,0,1-2.6,6.257h-2.5v4.983Zm1.515-10.791v4.3h2.539a1.958,1.958,0,0,0,1.5-.636,2.163,2.163,0,0,0,.04-2.965l-.04-.042a1.933,1.933,0,0,0-1.5-.653h-2.539Z" fill="#2e2e33" style="mix-blend-mode: color;isolation: isolate"/>
  </g>
</svg>
