<svg id="Layer_1" data-name="Layer 1" xmlns="http://www.w3.org/2000/svg" xmlns:xlink="http://www.w3.org/1999/xlink" width="191.52" height="51.05" viewBox="0 0 191.52 51.05">
  <defs>
    <linearGradient id="linear-gradient" x1="0.707" y1="0.956" x2="0.009" y2="0.092" gradientUnits="objectBoundingBox">
      <stop offset="0.49" stop-color="#fff"/>
      <stop offset="1" stop-color="#fff"/>
    </linearGradient>
    <linearGradient id="linear-gradient-2" x1="0.599" y1="0.99" x2="0.281" y2="0.005" gradientUnits="objectBoundingBox">
      <stop offset="0" stop-color="#fff"/>
      <stop offset="0.42" stop-color="#fff"/>
    </linearGradient>
    <linearGradient id="linear-gradient-3" x1="-0.085" y1="0.302" x2="0.984" y2="0.808" gradientUnits="objectBoundingBox">
      <stop offset="0" stop-color="#fff"/>
      <stop offset="0.46" stop-color="#fff"/>
    </linearGradient>
  </defs>
  <g id="Сгруппировать_7786" data-name="Сгруппировать 7786">
    <path id="Контур_22565" data-name="Контур 22565" d="M35.369,44.806l7.076,4.084h0l-8.841,5.1-3.535,2.042-8.841,5.1-8.841-5.1L8.851,53.994,0,48.89V24.384L7.076,20.3V44.8l5.306,3.063,3.535,2.042,5.306,3.063,5.306-3.063,3.535-2.042L35.369,44.8Z" transform="translate(0 -10.091)" fill="url(#linear-gradient)"/>
    <g id="Сгруппировать_7785" data-name="Сгруппировать 7785" transform="translate(48.037 12.09)">
      <path id="Контур_22566" data-name="Контур 22566" d="M103.823,40.545a4.362,4.362,0,0,1,4.244,2.716h3.747a7.747,7.747,0,0,0-7.991-6.181,8.119,8.119,0,1,0,0,16.234,7.747,7.747,0,0,0,7.991-6.181h-3.747a4.6,4.6,0,0,1-8.8-1.936A4.4,4.4,0,0,1,103.823,40.545Z" transform="translate(-95.52 -30.522)" fill="#fff"/>
      <path id="Контур_22567" data-name="Контур 22567" d="M140,37.08a8.119,8.119,0,1,0,8.3,8.117A7.922,7.922,0,0,0,140,37.08Zm0,12.769a4.4,4.4,0,0,1-4.556-4.652,4.543,4.543,0,1,1,9.082,0A4.376,4.376,0,0,1,140,49.849Z" transform="translate(-113.505 -30.522)" fill="#fff"/>
      <path id="Контур_22568" data-name="Контур 22568" d="M171.764,24.04a2.4,2.4,0,0,0-2.464,2.5,2.464,2.464,0,1,0,4.928,0A2.406,2.406,0,0,0,171.764,24.04Z" transform="translate(-132.196 -24.04)" fill="#fff"/>
      <rect id="Прямоугольник_159" data-name="Прямоугольник 159" width="3.716" height="15.419" transform="translate(37.692 6.965)" fill="#fff"/>
      <path id="Контур_22569" data-name="Контур 22569" d="M192.584,37.08c-4.556,0-7.614,2.655-7.614,7.805v8.021h3.716V44.885c0-2.932,1.559-4.34,3.9-4.34s3.9,1.4,3.9,4.34v8.021h3.716V44.885c0-5.18-3.058-7.805-7.619-7.805Z" transform="translate(-139.986 -30.522)" fill="#fff"/>
      <path id="Контур_22570" data-name="Контур 22570" d="M266.633,37.08a8.119,8.119,0,1,0,8.3,8.117A7.922,7.922,0,0,0,266.633,37.08Zm0,12.769a4.4,4.4,0,0,1-4.556-4.652,4.542,4.542,0,1,1,9.082,0A4.376,4.376,0,0,1,266.633,49.849Z" transform="translate(-176.453 -30.522)" fill="#fff"/>
      <path id="Контур_22571" data-name="Контур 22571" d="M229.793,30.817a8.76,8.76,0,0,0-4.586,1.222V24.48H221.49V38.933h0a8.305,8.305,0,0,0,16.606,0A7.922,7.922,0,0,0,229.793,30.817Zm0,12.769a4.4,4.4,0,0,1-4.556-4.652,4.543,4.543,0,1,1,9.082,0A4.376,4.376,0,0,1,229.793,43.585Z" transform="translate(-158.14 -24.259)" fill="#fff"/>
      <path id="Контур_22572" data-name="Контур 22572" d="M303.573,37.08a8.119,8.119,0,1,0,8.3,8.117A7.922,7.922,0,0,0,303.573,37.08Zm0,12.769a4.4,4.4,0,0,1-4.556-4.652,4.543,4.543,0,1,1,9.082,0A4.376,4.376,0,0,1,303.573,49.849Z" transform="translate(-194.816 -30.522)" fill="#fff"/>
      <path id="Контур_22573" data-name="Контур 22573" d="M339.181,43.6c-1.654-.216-3.058-.407-3.058-1.594,0-.905.81-1.685,2.434-1.685,1.468,0,2.344.654,2.434,1.594h3.681c-.1-2.716-2.4-4.838-6.181-4.838s-6.12,2.062-6.12,5.215c0,3.777,3.5,4.184,5.869,4.5,1.655.216,3.027.372,3.027,1.559,0,.935-.81,1.715-2.716,1.715s-2.716-.689-2.746-1.715H332.06c.1,2.872,2.56,4.964,6.492,4.964s6.462-2.062,6.462-5.18c0-3.837-3.777-4.244-5.839-4.526Z" transform="translate(-213.104 -30.522)" fill="#fff"/>
      <path id="Контур_22574" data-name="Контур 22574" d="M370.709,35.861V32.492h-4.094V27.03H362.9v5.462H360.47v3.369H362.9v6.12c0,4.275,2.56,6.337,6.306,6.337h1.5V44.853h-1.5c-1.529,0-2.59-.81-2.59-2.872v-6.12Z" transform="translate(-227.227 -25.526)" fill="#fff"/>
    </g>
    <path id="Контур_22575" data-name="Контур 22575" d="M38.782,18.376l-3.535-2.042-3.535-2.042V22.46L35.247,24.5v4.084l-3.535,2.047-3.54-2.047V0L21.1,4.084v28.59l3.535,2.042,3.535,2.042,3.54,2.042,3.535-2.042,3.535-2.042,3.535-2.042V20.418Z" transform="translate(-10.489)" fill="url(#linear-gradient-2)"/>
    <path id="Контур_22576" data-name="Контур 22576" d="M54.576,11.206,51.041,9.164,42.2,4.06v8.167l5.306,3.063,3.535,2.042,5.306,3.063,7.071-4.084h0Z" transform="translate(-20.978 -2.018)" fill="url(#linear-gradient-3)"/>
  </g>
</svg>
