<svg id="Layer_1" data-name="Layer 1" xmlns="http://www.w3.org/2000/svg" xmlns:xlink="http://www.w3.org/1999/xlink" width="190.783" height="50.853" viewBox="0 0 190.783 50.853">
  <defs>
    <linearGradient id="linear-gradient" x1="0.707" y1="0.956" x2="0.009" y2="0.092" gradientUnits="objectBoundingBox">
      <stop offset="0.49" stop-color="#eb723b"/>
      <stop offset="1" stop-color="#ff3533"/>
    </linearGradient>
    <linearGradient id="linear-gradient-2" x1="0.599" y1="0.99" x2="0.281" y2="0.005" gradientUnits="objectBoundingBox">
      <stop offset="0" stop-color="#ff3533"/>
      <stop offset="0.42" stop-color="#eb723b"/>
    </linearGradient>
    <linearGradient id="linear-gradient-3" x1="-0.085" y1="0.302" x2="0.984" y2="0.808" gradientUnits="objectBoundingBox">
      <stop offset="0" stop-color="#ff3533"/>
      <stop offset="0.46" stop-color="#eb723b"/>
    </linearGradient>
  </defs>
  <g id="Сгруппировать_7788" data-name="Сгруппировать 7788">
    <path id="Контур_22577" data-name="Контур 22577" d="M35.233,44.712l7.049,4.068h0l-8.807,5.085L29.953,55.9l-8.807,5.085L12.339,55.9,8.817,53.865,0,48.78V24.368L7.049,20.3V44.707l5.285,3.051,3.522,2.034,5.285,3.051,5.285-3.051,3.522-2.034,5.285-3.051Z" transform="translate(0 -10.13)" fill="url(#linear-gradient)"/>
    <g id="Сгруппировать_7787" data-name="Сгруппировать 7787" transform="translate(47.852 12.043)">
      <path id="Контур_22578" data-name="Контур 22578" d="M103.791,40.532a4.345,4.345,0,0,1,4.228,2.705h3.732a7.717,7.717,0,0,0-7.96-6.157,8.088,8.088,0,1,0,0,16.171,7.717,7.717,0,0,0,7.96-6.157h-3.732a4.585,4.585,0,0,1-8.767-1.929A4.383,4.383,0,0,1,103.791,40.532Z" transform="translate(-95.52 -30.547)" fill="#fff"/>
      <path id="Контур_22579" data-name="Контур 22579" d="M139.971,37.08a8.088,8.088,0,1,0,8.271,8.086A7.891,7.891,0,0,0,139.971,37.08Zm0,12.72a4.383,4.383,0,0,1-4.539-4.634,4.525,4.525,0,1,1,9.047,0A4.36,4.36,0,0,1,139.971,49.8Z" transform="translate(-113.575 -30.547)" fill="#fff"/>
      <path id="Контур_22580" data-name="Контур 22580" d="M171.755,24.04a2.391,2.391,0,0,0-2.455,2.49,2.455,2.455,0,1,0,4.909,0A2.4,2.4,0,0,0,171.755,24.04Z" transform="translate(-132.339 -24.04)" fill="#fff"/>
      <rect id="Прямоугольник_160" data-name="Прямоугольник 160" width="3.702" height="15.36" transform="translate(37.547 6.938)" fill="#fff"/>
      <path id="Контур_22581" data-name="Контур 22581" d="M192.555,37.08c-4.539,0-7.585,2.645-7.585,7.775v7.99h3.7v-7.99c0-2.921,1.553-4.323,3.887-4.323s3.888,1.4,3.888,4.323v7.99h3.7v-7.99c0-5.16-3.046-7.775-7.59-7.775Z" transform="translate(-140.159 -30.547)" fill="#fff"/>
      <path id="Контур_22582" data-name="Контур 22582" d="M266.6,37.08a8.088,8.088,0,1,0,8.271,8.086A7.891,7.891,0,0,0,266.6,37.08Zm0,12.72a4.383,4.383,0,0,1-4.539-4.634,4.525,4.525,0,1,1,9.047,0A4.36,4.36,0,0,1,266.6,49.8Z" transform="translate(-176.768 -30.547)" fill="#fff"/>
      <path id="Контур_22583" data-name="Контур 22583" d="M229.761,30.792a8.726,8.726,0,0,0-4.569,1.217V24.48h-3.7v14.4h0a8.273,8.273,0,0,0,16.542,0A7.891,7.891,0,0,0,229.761,30.792Zm0,12.72a4.383,4.383,0,0,1-4.539-4.634,4.525,4.525,0,1,1,9.047,0A4.36,4.36,0,0,1,229.761,43.512Z" transform="translate(-158.383 -24.26)" fill="#fff"/>
      <path id="Контур_22584" data-name="Контур 22584" d="M303.541,37.08a8.088,8.088,0,1,0,8.271,8.086A7.891,7.891,0,0,0,303.541,37.08Zm0,12.72A4.383,4.383,0,0,1,299,45.166a4.525,4.525,0,1,1,9.047,0A4.36,4.36,0,0,1,303.541,49.8Z" transform="translate(-195.202 -30.547)" fill="#fff"/>
      <path id="Контур_22585" data-name="Контур 22585" d="M339.154,43.578c-1.648-.215-3.046-.406-3.046-1.588,0-.9.807-1.678,2.425-1.678,1.463,0,2.335.651,2.425,1.588h3.667c-.1-2.705-2.395-4.819-6.157-4.819s-6.1,2.054-6.1,5.2c0,3.762,3.482,4.168,5.846,4.479,1.648.215,3.016.371,3.016,1.553,0,.932-.807,1.708-2.705,1.708s-2.705-.686-2.735-1.708H332.06c.1,2.861,2.55,4.945,6.467,4.945s6.437-2.054,6.437-5.16c0-3.822-3.762-4.228-5.816-4.509Z" transform="translate(-213.561 -30.547)" fill="#fff"/>
      <path id="Контур_22586" data-name="Контур 22586" d="M370.67,35.827V32.47h-4.078V27.03h-3.7v5.44h-2.42v3.356h2.42v6.1c0,4.258,2.55,6.312,6.282,6.312h1.5V44.784h-1.5c-1.523,0-2.58-.807-2.58-2.861v-6.1Z" transform="translate(-227.739 -25.532)" fill="#fff"/>
    </g>
    <path id="Контур_22587" data-name="Контур 22587" d="M38.714,18.305l-3.522-2.034L31.67,14.237v8.136l3.522,2.034v4.068L31.67,30.514l-3.527-2.039V0L21.1,4.068v28.48l3.522,2.034,3.522,2.034L31.67,38.65l3.522-2.034,3.522-2.034,3.522-2.034V20.339Z" transform="translate(-10.53)" fill="url(#linear-gradient-2)"/>
    <path id="Контур_22588" data-name="Контур 22588" d="M54.529,11.179,51.007,9.145,42.2,4.06V12.2l5.285,3.051,3.522,2.034,5.285,3.051,7.044-4.068h0Z" transform="translate(-21.059 -2.026)" fill="url(#linear-gradient-3)"/>
  </g>
</svg>
