<?xml version="1.0" encoding="utf-8"?>
<!-- Generator: Adobe Illustrator 26.3.1, SVG Export Plug-In . SVG Version: 6.00 Build 0)  -->
<svg version="1.1" id="Layer_1" xmlns="http://www.w3.org/2000/svg" xmlns:xlink="http://www.w3.org/1999/xlink" x="0px" y="0px"
	 viewBox="0 0 163.75 43.64" style="enable-background:new 0 0 163.75 43.64;" xml:space="preserve">
<style type="text/css">
	.st0{fill:url(#SVGID_1_);}
	.st1{fill:#2E2E33;}
	.st2{fill:url(#SVGID_00000026152372064741157170000015837600195006485902_);}
	.st3{fill:url(#SVGID_00000043440830214294665470000009446031351454261658_);}
</style>
<g>
	
		<linearGradient id="SVGID_1_" gradientUnits="userSpaceOnUse" x1="25.6351" y1="4.0777" x2="0.3293" y2="34.2363" gradientTransform="matrix(1 0 0 -1 0 46.18)">
		<stop  offset="0.4867" style="stop-color:#EB723B"/>
		<stop  offset="1" style="stop-color:#FF3533"/>
	</linearGradient>
	<path class="st0" d="M30.23,29.68l6.05,3.49l0,0l-7.56,4.36l-3.02,1.75l-7.56,4.36l-7.56-4.36l-3.02-1.75L0,33.17v-8.73v-3.49
		v-8.73l6.05-3.49v6.98v5.24v1.9v1.59v5.24l4.54,2.62l3.02,1.75l4.54,2.62l4.54-2.62l3.02-1.75L30.23,29.68z"/>
	<g>
		<path class="st1" d="M48.16,18.91c1.73,0,3.07,0.91,3.63,2.32h3.2c-0.64-3.12-3.26-5.28-6.83-5.28c-4.16,0-7.1,2.94-7.1,6.94
			s2.94,6.94,7.1,6.94c3.58,0,6.19-2.16,6.83-5.28h-3.2c-0.56,1.41-1.9,2.32-3.63,2.32c-2.32,0-3.9-1.65-3.9-3.98
			S45.84,18.91,48.16,18.91z"/>
		<path class="st1" d="M63.72,15.95c-4.16,0-7.1,2.94-7.1,6.94s2.94,6.94,7.1,6.94s7.1-2.94,7.1-6.94S67.88,15.95,63.72,15.95z
			 M63.72,26.86c-2.32,0-3.9-1.65-3.9-3.98s1.57-3.98,3.9-3.98s3.87,1.65,3.87,3.98S66.04,26.86,63.72,26.86z"/>
		<path class="st1" d="M74.9,10.34c-1.23,0-2.11,0.91-2.11,2.14s0.88,2.11,2.11,2.11s2.11-0.88,2.11-2.11
			C77.01,11.25,76.12,10.34,74.9,10.34z"/>
		<rect x="73.3" y="16.29" class="st1" width="3.18" height="13.18"/>
		<path class="st1" d="M86.04,15.95c-3.9,0-6.51,2.27-6.51,6.67v6.86h3.18v-6.86c0-2.51,1.33-3.71,3.34-3.71c2,0,3.34,1.2,3.34,3.71
			v6.86h3.18v-6.86C92.55,18.19,89.94,15.95,86.04,15.95z"/>
		<path class="st1" d="M118.17,15.95c-4.16,0-7.1,2.94-7.1,6.94s2.94,6.94,7.1,6.94s7.1-2.94,7.1-6.94S122.34,15.95,118.17,15.95z
			 M118.17,26.86c-2.32,0-3.9-1.65-3.9-3.98s1.57-3.98,3.9-3.98c2.32,0,3.87,1.65,3.87,3.98S120.5,26.86,118.17,26.86z"/>
		<path class="st1" d="M102.33,15.95c-1.49,0-2.83,0.38-3.92,1.05v-6.46h-3.18V22.9l0,0l0,0c0,4,2.94,6.94,7.1,6.94
			s7.1-2.94,7.1-6.94S106.49,15.95,102.33,15.95z M102.33,26.86c-2.32,0-3.9-1.65-3.9-3.98s1.57-3.98,3.9-3.98
			c2.32,0,3.87,1.65,3.87,3.98S104.65,26.86,102.33,26.86z"/>
		<path class="st1" d="M134.06,15.95c-4.16,0-7.1,2.94-7.1,6.94s2.94,6.94,7.1,6.94s7.1-2.94,7.1-6.94S138.22,15.95,134.06,15.95z
			 M134.06,26.86c-2.32,0-3.9-1.65-3.9-3.98s1.57-3.98,3.9-3.98c2.32,0,3.87,1.65,3.87,3.98S136.38,26.86,134.06,26.86z"/>
		<path class="st1" d="M148.87,21.52c-1.41-0.19-2.62-0.35-2.62-1.36c0-0.77,0.69-1.44,2.08-1.44c1.25,0,2,0.56,2.08,1.36h3.15
			c-0.08-2.32-2.05-4.14-5.28-4.14c-3.18,0-5.23,1.76-5.23,4.46c0,3.23,2.99,3.58,5.02,3.84c1.41,0.19,2.59,0.32,2.59,1.33
			c0,0.8-0.69,1.47-2.32,1.47c-1.55,0-2.32-0.59-2.35-1.47h-3.2c0.08,2.46,2.19,4.24,5.55,4.24s5.52-1.76,5.52-4.43
			C153.86,22.11,150.63,21.76,148.87,21.52z"/>
		<path class="st1" d="M163.75,19.18V16.3h-3.5v-4.67h-3.18v4.67h-2.08v2.88h2.08v5.23c0,3.66,2.19,5.42,5.39,5.42l0,0h1.29v-2.96
			h-1.29l0,0c-1.31,0-2.21-0.69-2.21-2.46v-5.23L163.75,19.18L163.75,19.18z"/>
	</g>
	
		<linearGradient id="SVGID_00000034065705218754442320000016899760270580649107_" gradientUnits="userSpaceOnUse" x1="19.9278" y1="13.3151" x2="14.1623" y2="46.0129" gradientTransform="matrix(1 0 0 -1 0 46.18)">
		<stop  offset="0" style="stop-color:#FF3533"/>
		<stop  offset="0.4232" style="stop-color:#EB723B"/>
	</linearGradient>
	<polygon style="fill:url(#SVGID_00000034065705218754442320000016899760270580649107_);" points="24.18,15.72 21.16,13.97 
		18.14,12.22 18.14,19.21 21.16,20.95 21.16,24.45 18.14,26.19 15.11,24.45 15.11,23.27 15.11,22.7 15.11,20.95 15.11,13.97 
		15.11,5.86 15.11,0 9.06,3.49 9.06,17.46 9.06,20.95 9.06,23.27 9.06,24.45 9.06,27.94 12.09,29.68 15.11,31.43 18.14,33.18 
		21.16,31.43 24.18,29.68 27.21,27.94 27.21,24.45 27.21,20.95 27.21,17.46 	"/>
	
		<linearGradient id="SVGID_00000097477090052443912650000002890727436303645609_" gradientUnits="userSpaceOnUse" x1="16.6028" y1="40.2049" x2="35.9859" y2="33.1499" gradientTransform="matrix(1 0 0 -1 0 46.18)">
		<stop  offset="0" style="stop-color:#FF3533"/>
		<stop  offset="0.4648" style="stop-color:#EB723B"/>
	</linearGradient>
	<polygon style="fill:url(#SVGID_00000097477090052443912650000002890727436303645609_);" points="28.72,7.86 25.7,6.11 18.14,1.75 
		18.14,8.73 22.67,11.35 25.7,13.1 30.23,15.72 36.28,12.22 36.28,12.22 	"/>
</g>
</svg>
