<svg id="p1" xmlns="http://www.w3.org/2000/svg" xmlns:xlink="http://www.w3.org/1999/xlink" width="40" height="47" viewBox="0 0 40 47">
  <defs>
    <clipPath id="clip-path">
      <rect id="Прямоугольник_146" data-name="Прямоугольник 146" width="40" height="47" fill="none"/>
    </clipPath>
  </defs>
  <path id="Контур_22472" data-name="Контур 22472" d="M20,0,0,11.75v23.5L20,47,40,35.25V11.75Z" fill="#ff8f00"/>
  <g id="Сгруппировать_7766" data-name="Сгруппировать 7766">
    <g id="Сгруппировать_7765" data-name="Сгруппировать 7765" clip-path="url(#clip-path)">
      <path id="Контур_22473" data-name="Контур 22473" d="M17.78,32.609c-.395-.109-.776-.208-1.162-.292-.194-.041-.388-.077-.583-.107-.14-.021-.142-.016-.176.119-.142.55-.281,1.1-.423,1.648L14.942,35.9c-.012.044-.03.089-.047.141l-1.061-.31q-.545-.157-1.088-.317c-.154-.045-.154-.046-.115-.2l.8-3.182c.049-.194.1-.39.152-.607-.769-.217-1.551-.37-2.313-.6s-1.52-.432-2.28-.646c-.019-.068.017-.11.037-.157q.508-1.188,1.022-2.374c.07-.162.032-.174.241-.123l1.557.391a.838.838,0,0,0,.482-.018.764.764,0,0,0,.528-.566q.715-2.974,1.429-5.948c.356-1.482.706-2.967,1.069-4.448a1.221,1.221,0,0,0-.84-1.479c-.512-.132-1.025-.26-1.539-.391-.094-.025-.225-.011-.272-.091s.026-.189.051-.285c.178-.687.36-1.372.54-2.057.051-.2.031-.166.208-.119,1.008.26,2.014.529,3.023.785.456.116.912.233,1.375.32.135.025.136.025.171-.11q.43-1.674.861-3.348c.021-.08.042-.16.065-.24.035-.128.037-.13.162-.1.58.151,1.158.3,1.739.457.061.016.122.036.185.052.19.045.18.036.128.235q-.445,1.7-.889,3.4c-.005.018-.012.034-.016.05-.031.132-.031.137.1.167.243.057.487.11.732.164.3.066.6.128.905.192.121.027.124.027.154-.1q.275-1.137.549-2.275c.1-.413.2-.828.3-1.241.03-.117.031-.119.147-.087l2.044.593c.152.045.152.046.112.206q-.333,1.3-.666,2.593l-.241.945c-.04.158-.04.16.114.21a13.375,13.375,0,0,1,2.044.858,6.44,6.44,0,0,1,1.667,1.216,3.63,3.63,0,0,1,.994,1.919,4.15,4.15,0,0,1,.021,1.221,5.75,5.75,0,0,1-.318,1.379,3.461,3.461,0,0,1-2.453,2.2.543.543,0,0,0-.163.053c.035.055.1.068.145.1a6,6,0,0,1,1.2.845,3.55,3.55,0,0,1,1.16,2.908,6.031,6.031,0,0,1-.239,1.377,8.228,8.228,0,0,1-.629,1.614,4.433,4.433,0,0,1-3.04,2.321,8.294,8.294,0,0,1-2.011.183,18.973,18.973,0,0,1-2.619-.265c-.124-.019-.126-.019-.161.109q-.49,1.8-.977,3.591c-.06.219-.06.219-.273.15l-1.924-.63c-.18-.059-.18-.059-.131-.251L17.76,32.7a.519.519,0,0,0,.019-.091m3.2-2.179c.1,0,.21,0,.314,0a4.319,4.319,0,0,0,1.279-.244,2.214,2.214,0,0,0,.807-3.544,3.858,3.858,0,0,0-.643-.545,8.061,8.061,0,0,0-2.044-.931c-.859-.278-1.742-.461-2.619-.667-.122-.029-.128-.025-.161.112l-.267,1.121-.9,3.794c-.033.137-.031.139.1.173.65.158,1.295.335,1.95.468a10.734,10.734,0,0,0,2.18.262M19.775,17.348c-.017.055-.03.094-.04.134-.077.317-.152.632-.229.949q-.43,1.775-.858,3.551c-.037.148-.033.142.1.176.377.1.753.2,1.132.294a9.034,9.034,0,0,0,2.4.3,3.753,3.753,0,0,0,1.029-.176,2.065,2.065,0,0,0,.884-3.3,3.384,3.384,0,0,0-.517-.475,5.818,5.818,0,0,0-1.361-.71c-.825-.315-1.684-.5-2.544-.742" fill="#fffffe"/>
    </g>
  </g>
</svg>
