<svg id="p2" xmlns="http://www.w3.org/2000/svg" xmlns:xlink="http://www.w3.org/1999/xlink" width="40" height="47" viewBox="0 0 40 47">
  <defs>
    <clipPath id="clip-path">
      <rect id="Прямоугольник_147" data-name="Прямоугольник 147" width="40" height="47" fill="none"/>
    </clipPath>
  </defs>
  <path id="Контур_22474" data-name="Контур 22474" d="M20,0,0,11.75v23.5L20,47,40,35.25V11.75Z" fill="#222"/>
  <g id="Сгруппировать_7768" data-name="Сгруппировать 7768">
    <g id="Сгруппировать_7767" data-name="Сгруппировать 7767" clip-path="url(#clip-path)">
      <path id="Контур_22475" data-name="Контур 22475" d="M11.858,23.718A7.241,7.241,0,0,1,12.27,23q2.332-3.946,4.669-7.89,1.488-2.517,2.978-5.032c.015-.025.022-.054.053-.062.041.035.024.084.024.126v9.833c-.007.01-.017.017-.024.027a.634.634,0,0,0-.09.032c-.374.173-.747.348-1.121.518q-1.128.518-2.253,1.039c-.582.269-1.162.543-1.744.812-.784.363-1.564.728-2.35,1.086a2.677,2.677,0,0,1-.555.232" fill="#efccc1"/>
      <path id="Контур_22476" data-name="Контур 22476" d="M11.858,23.887a.166.166,0,0,1-.131-.064.172.172,0,0,1-.02-.175,4.615,4.615,0,0,1,.305-.548c.039-.063.078-.126.116-.19q2.333-3.946,4.669-7.891l.437-.74q1.269-2.147,2.541-4.292a.237.237,0,0,1,.158-.139.166.166,0,0,1,.143.034.266.266,0,0,1,.086.242v9.847a.174.174,0,0,1-.033.1l-.028.032a.153.153,0,0,1-.077.054l-.074.026-.375.174c-.248.116-.5.231-.746.345-.752.345-1.5.691-2.252,1.039q-.465.214-.929.432l-1.471.684q-.847.393-1.7.782c-.055.024-.107.05-.158.076a1.7,1.7,0,0,1-.434.168.159.159,0,0,1-.032,0m7.971-13.339c-.78,1.318-1.545,2.611-2.31,3.906l-.438.74q-2.336,3.942-4.669,7.89c-.039.066-.08.13-.119.2l-.067.108c.04-.02.08-.039.121-.057.564-.257,1.127-.518,1.691-.78l1.471-.684q.464-.217.929-.432,1.127-.522,2.254-1.039c.249-.114.5-.229.745-.344l.375-.174.017-.008Zm.248-.419v0" fill="#7979dd"/>
      <path id="Контур_22477" data-name="Контур 22477" d="M20,19.972V10.139c0-.042.017-.091-.024-.126.048-.089.058,0,.068.02.114.188.226.378.34.568q3.838,6.49,7.679,12.98a.333.333,0,0,1,.07.141.3.3,0,0,1-.15-.042q-.819-.378-1.635-.758c-.582-.269-1.162-.543-1.744-.812q-1.259-.581-2.515-1.16c-.582-.269-1.162-.545-1.746-.81A1.006,1.006,0,0,0,19.993,20a.1.1,0,0,0,0-.027" fill="#b7f9f6"/>
      <path id="Контур_22478" data-name="Контур 22478" d="M28.113,23.89a.441.441,0,0,1-.192-.052c-.559-.258-1.1-.51-1.649-.764l-.841-.392q-.45-.21-.9-.42L21.4,20.817c-.376-.176-.753-.352-1.131-.522-.036-.017-.068-.034-.1-.052a.5.5,0,0,0-.188-.075.165.165,0,0,1-.122-.069.175.175,0,0,1-.029-.128V10.139s0-.023,0-.035a.174.174,0,0,1,0-.173.2.2,0,0,1,.2-.123.2.2,0,0,1,.166.158l.329.548L28.2,23.493a.43.43,0,0,1,.094.213.17.17,0,0,1-.038.124.164.164,0,0,1-.113.06h-.029m-7.952-4.025a1.236,1.236,0,0,1,.164.079c.027.014.054.029.081.042.377.17.755.347,1.133.523l3.129,1.446q.451.209.9.42l.841.392q.668.313,1.338.621L20.162,10.564Zm-.3-9.722h0Z" fill="#7979dd"/>
      <path id="Контур_22479" data-name="Контур 22479" d="M20,20a1.1,1.1,0,0,1,.344.141c.585.264,1.164.541,1.746.81q1.259.581,2.515,1.16c.582.269,1.162.543,1.744.812.546.254,1.089.506,1.635.758a.314.314,0,0,0,.15.042c.041.074-.036.067-.063.084-.5.3-1,.6-1.5.9Q23.336,26.656,20.1,28.6c-.034.02-.063.054-.107.049V20Z" fill="#cab3f5"/>
      <path id="Контур_22480" data-name="Контур 22480" d="M20,28.819l-.027,0a.168.168,0,0,1-.148-.168V20a.17.17,0,0,1,.054-.124.137.137,0,0,1,.126-.045.753.753,0,0,1,.306.108c.03.016.06.032.091.046.381.172.759.348,1.137.525l3.129,1.446q.451.209.9.42l.841.392c.546.254,1.089.506,1.635.757a.223.223,0,0,0,.074.027h0a.174.174,0,0,1,.152.085.208.208,0,0,1-.137.321c-.362.222-.74.449-1.118.676l-1.173.706q-2.831,1.7-5.661,3.406a.306.306,0,0,1-.183.073m.158-8.581v8.129q2.757-1.657,5.516-3.319l1.174-.706q.47-.283.939-.567-.756-.348-1.514-.7l-.842-.392q-.45-.21-.9-.42L21.4,20.817c-.377-.176-.753-.352-1.131-.522-.036-.016-.074-.036-.11-.055" fill="#7979dd"/>
      <path id="Контур_22481" data-name="Контур 22481" d="M20,28.6v.049a2.519,2.519,0,0,1-.441-.249q-3.817-2.3-7.633-4.6c-.022-.012-.041-.027-.061-.039,0-.017,0-.032,0-.049a2.488,2.488,0,0,0,.553-.234q1.179-.537,2.35-1.086c.582-.269,1.162-.543,1.744-.812.75-.348,1.5-.691,2.253-1.039l1.121-.518c.029-.012.061-.02.09-.032v8.476c0,.047-.015.1.027.131" fill="#89abf2"/>
      <path id="Контур_22482" data-name="Контур 22482" d="M20,28.819a.166.166,0,0,1-.054-.009,1.66,1.66,0,0,1-.353-.189c-.039-.025-.078-.05-.118-.074q-3.819-2.3-7.634-4.6a.5.5,0,0,1-.048-.03.218.218,0,0,1-.095-.154l0-.05a.168.168,0,0,1,.135-.166,1.4,1.4,0,0,0,.359-.145c.052-.027.1-.053.157-.078q1.178-.537,2.348-1.085l1.745-.812q.641-.3,1.285-.593l2.088-.964a.653.653,0,0,1,.063-.023.19.19,0,0,1,.172.01.177.177,0,0,1,.09.135v8.475s0,.026,0,.038a.172.172,0,0,1,.028.093v.049a.17.17,0,0,1-.07.138.164.164,0,0,1-.1.031m.105-.349h0m-7.9-4.695q3.72,2.242,7.441,4.48c.043.026.085.053.128.08l.036.023V20.249l-1.944.9q-.644.3-1.284.593l-1.744.812q-1.172.548-2.351,1.086c-.049.022-.1.047-.144.071s-.09.046-.137.068" fill="#7979dd"/>
      <path id="Контур_22483" data-name="Контур 22483" d="M20.017,37.006c-.058.052-.063-.02-.08-.042-.264-.373-.524-.748-.786-1.123q-2.4-3.443-4.8-6.889l-2.372-3.406c-.039-.054-.1-.1-.095-.178v0c.381.2.745.439,1.116.661l5.7,3.43q.644.389,1.293.772c0,.017,0,.032,0,.049V36.9c0,.035-.012.074.022.1" fill="#efccc1"/>
      <path id="Контур_22484" data-name="Контур 22484" d="M19.982,37.194a.193.193,0,0,1-.043,0,.212.212,0,0,1-.144-.137c-.18-.253-.365-.518-.55-.784l-.23-.329q-2.4-3.444-4.8-6.889l-2.373-3.406a.413.413,0,0,1-.125-.281.168.168,0,0,1,.166-.164c.047-.014.072.013.1.035.264.143.52.3.777.457l6.027,3.627q.645.389,1.292.772a.17.17,0,0,1,.083.146l0,.049V36.9s0,.009,0,.018a.171.171,0,0,1-.035.213.211.211,0,0,1-.144.06M12.407,25.869l2.08,2.986q2.4,3.443,4.8,6.889l.23.329.312.448V30.332c-.4-.24-.807-.48-1.209-.723l-6.03-3.628-.183-.113" fill="#7979dd"/>
      <path id="Контур_22485" data-name="Контур 22485" d="M20.017,37.006c-.034-.03-.022-.069-.022-.1V30.286a.343.343,0,0,1,0-.049q2.434-1.462,4.87-2.927,1.561-.937,3.122-1.878a.563.563,0,0,1,.087-.042l.024.017q-.458.666-.919,1.328-3.562,5.109-7.121,10.213l-.044.059" fill="#cab3f5"/>
      <path id="Контур_22486" data-name="Контур 22486" d="M20.017,37.176a.164.164,0,0,1-.108-.041.256.256,0,0,1-.081-.223V30.286a.542.542,0,0,1,0-.073.171.171,0,0,1,.08-.121l1.318-.792,3.552-2.135q1.561-.937,3.121-1.879a.61.61,0,0,1,.1-.048.187.187,0,0,1,.167.011.207.207,0,0,1,.083.118.193.193,0,0,1-.015.137q-.459.667-.92,1.329L20.15,37.108a.166.166,0,0,1-.115.066h-.018m.145-6.842v6.177l6.885-9.875q.264-.378.526-.758-1.311.791-2.62,1.577Q23.178,28.524,21.4,29.59Z" fill="#7979dd"/>
      <path id="Контур_22487" data-name="Контур 22487" d="M20,28.6c-.039-.037-.024-.084-.024-.128V20c.007-.01.017-.017.024-.027V28.6Z" fill="#616792"/>
      <path id="Контур_22488" data-name="Контур 22488" d="M20,28.769a.166.166,0,0,1-.113-.046.277.277,0,0,1-.078-.235V20a.175.175,0,0,1,.033-.1l.028-.032a.158.158,0,0,1,.184-.056.171.171,0,0,1,.112.163V28.6a.17.17,0,0,1-.1.155.159.159,0,0,1-.066.014m.106-.284-.043.047.075,0a.08.08,0,0,0-.021-.049Z" fill="#7979dd"/>
    </g>
  </g>
</svg>
