<svg xmlns="http://www.w3.org/2000/svg" xmlns:xlink="http://www.w3.org/1999/xlink" width="65.031" height="75.172" viewBox="0 0 65.031 75.172">
  <defs>
    <clipPath id="clip-path">
      <rect id="Прямоугольник_123" data-name="Прямоугольник 123" width="28" height="45" fill="none"/>
    </clipPath>
  </defs>
  <g id="about2" transform="translate(-928.306 -989.097)">
    <path id="Polygon_1_copy" data-name="Polygon 1 copy" d="M928.306,1007.891,960.821,989.1l32.516,18.793v37.586l-32.516,18.793-32.516-18.793Z" fill="#f8f8f9"/>
    <g id="Vector_Smart_Object" data-name="Vector Smart Object">
      <g id="Vector_Smart_Object-2" data-name="Vector Smart Object" transform="translate(947 1004)">
        <g id="Сгруппировать_7626" data-name="Сгруппировать 7626">
          <g id="Сгруппировать_7625" data-name="Сгруппировать 7625" clip-path="url(#clip-path)">
            <path id="Контур_22356" data-name="Контур 22356" d="M.28,22.859a11.824,11.824,0,0,1,.695-1.184Q4.9,15.19,8.842,8.71,11.35,4.574,13.861.442c.024-.041.037-.089.09-.1.07.057.041.138.041.207V16.7c-.012.016-.028.029-.041.045a1.087,1.087,0,0,0-.151.053c-.63.284-1.259.572-1.888.852q-1.9.852-3.8,1.707c-.981.442-1.958.892-2.939,1.334-1.32.6-2.636,1.2-3.96,1.784a4.59,4.59,0,0,1-.936.381" fill="#efccc1"/>
            <path id="Контур_22357" data-name="Контур 22357" d="M.28,23.136a.283.283,0,0,1-.22-.106.277.277,0,0,1-.034-.287,7.531,7.531,0,0,1,.514-.9c.066-.1.131-.208.2-.312Q4.666,15.047,8.6,8.566l.737-1.215Q11.479,3.823,13.622.3a.4.4,0,0,1,.267-.229.286.286,0,0,1,.241.057.431.431,0,0,1,.145.4l0,16.179a.281.281,0,0,1-.056.167c-.008.01-.037.043-.047.052a.258.258,0,0,1-.13.09l-.124.042-.631.286q-.627.285-1.258.566-1.9.85-3.794,1.707-.783.352-1.565.71L4.189,21.446q-1.427.646-2.857,1.285c-.093.039-.181.082-.267.125a2.915,2.915,0,0,1-.731.275.274.274,0,0,1-.053.005M13.712,1.219C12.4,3.384,11.109,5.51,9.82,7.638L9.082,8.853Q5.145,15.331,1.215,21.817c-.066.108-.134.214-.2.322L.9,22.316c.067-.033.134-.065.2-.094.95-.422,1.9-.852,2.85-1.282l2.478-1.123q.781-.357,1.565-.71,1.9-.858,3.8-1.708c.42-.187.836-.376,1.255-.565l.632-.286.029-.013ZM14.13.53s0,0,0,0,0,0,0,0" fill="#7979dd"/>
            <path id="Контур_22358" data-name="Контур 22358" d="M13.992,16.7V.547c0-.069.029-.15-.041-.207.082-.146.1.008.114.032.192.308.38.62.572.933q6.468,10.663,12.939,21.326a.542.542,0,0,1,.119.231.507.507,0,0,1-.253-.069q-1.379-.621-2.755-1.245c-.981-.442-1.958-.892-2.939-1.334q-2.121-.955-4.238-1.906c-.981-.442-1.957-.9-2.943-1.33a1.72,1.72,0,0,0-.58-.231.168.168,0,0,0,0-.045" fill="#b7f9f6"/>
            <path id="Контур_22359" data-name="Контур 22359" d="M27.671,23.141a.758.758,0,0,1-.323-.085c-.942-.423-1.862-.837-2.779-1.255l-1.418-.644q-.759-.346-1.519-.689L16.36,18.091c-.634-.289-1.268-.578-1.906-.858-.06-.027-.115-.056-.169-.086a.86.86,0,0,0-.317-.123.278.278,0,0,1-.256-.324V.547c0-.006,0-.038,0-.058A.28.28,0,0,1,13.706.2a.336.336,0,0,1,.335-.2.325.325,0,0,1,.28.259l.555.9,12.94,21.328a.7.7,0,0,1,.158.35.273.273,0,0,1-.064.2.278.278,0,0,1-.19.1l-.049,0m-13.4-6.614a2.106,2.106,0,0,1,.276.129c.045.024.09.048.137.069.636.279,1.273.57,1.908.86l5.272,2.375q.761.343,1.52.69L24.8,21.3q1.125.514,2.255,1.021L14.274,1.246ZM13.772.554h0Z" fill="#7979dd"/>
            <path id="Контур_22360" data-name="Контур 22360" d="M13.992,16.747a1.883,1.883,0,0,1,.58.231c.985.434,1.962.888,2.943,1.33q2.121.955,4.238,1.906c.981.442,1.957.892,2.939,1.334.919.418,1.835.831,2.754,1.245a.539.539,0,0,0,.253.069c.07.122-.061.11-.106.138-.838.5-1.68.99-2.522,1.484q-5.45,3.2-10.9,6.4c-.057.032-.106.089-.18.081V16.747Z" fill="#cab3f5"/>
            <path id="Контур_22361" data-name="Контур 22361" d="M14.006,31.24a.372.372,0,0,1-.045,0,.279.279,0,0,1-.249-.276V16.748a.276.276,0,0,1,.09-.2.234.234,0,0,1,.212-.073,1.294,1.294,0,0,1,.515.178c.051.026.1.053.153.075.642.282,1.279.572,1.915.862l5.272,2.376q.761.343,1.52.69l1.418.644c.92.418,1.836.831,2.754,1.244a.383.383,0,0,0,.124.045h0a.294.294,0,0,1,.256.14.351.351,0,0,1,.031.322.369.369,0,0,1-.263.2c-.61.364-1.247.737-1.884,1.111l-1.977,1.16q-4.77,2.8-9.539,5.6a.521.521,0,0,1-.308.121m.267-14.1V30.5q4.646-2.722,9.294-5.452l1.978-1.16q.792-.465,1.582-.931-1.273-.571-2.551-1.153l-1.419-.644q-.759-.346-1.519-.69l-5.274-2.377c-.634-.289-1.269-.578-1.906-.859-.061-.026-.124-.058-.186-.091" fill="#7979dd"/>
            <path id="Контур_22362" data-name="Контур 22362" d="M13.992,30.88v.081a4.276,4.276,0,0,1-.744-.41Q6.817,26.78.387,23c-.037-.02-.07-.045-.1-.065,0-.028,0-.053,0-.081a4.251,4.251,0,0,0,.932-.385q1.986-.882,3.961-1.784c.981-.442,1.957-.892,2.938-1.334,1.263-.572,2.53-1.135,3.8-1.707l1.888-.852c.049-.02.1-.032.151-.053V30.665c0,.077-.025.158.045.215" fill="#89abf2"/>
            <path id="Контур_22363" data-name="Контур 22363" d="M13.992,31.239a.286.286,0,0,1-.091-.016,2.822,2.822,0,0,1-.595-.31c-.066-.042-.131-.083-.2-.122Q6.673,27.019.245,23.239a.824.824,0,0,1-.081-.049A.357.357,0,0,1,0,22.936l0-.082a.278.278,0,0,1,.227-.272,2.4,2.4,0,0,0,.606-.238c.087-.044.175-.087.265-.128q1.985-.882,3.957-1.783L8,19.1q1.081-.489,2.165-.974l3.519-1.584c.041-.017.074-.028.107-.038a.327.327,0,0,1,.29.016.291.291,0,0,1,.152.222V30.665s0,.043,0,.062a.277.277,0,0,1,.046.153v.081a.278.278,0,0,1-.117.226.282.282,0,0,1-.163.052m.178-.573h0M.853,22.951q6.268,3.684,12.538,7.361c.073.042.144.087.216.132l.06.038V17.159L10.391,18.63q-1.085.486-2.164.974L5.289,20.938q-1.974.9-3.962,1.785c-.082.037-.163.076-.243.117s-.152.075-.231.111" fill="#7979dd"/>
            <path id="Контур_22364" data-name="Контур 22364" d="M14.029,44.692c-.1.085-.106-.033-.135-.069-.445-.612-.883-1.229-1.324-1.845Q8.523,37.121,4.482,31.46l-4-5.6c-.065-.089-.164-.166-.159-.292v0c.642.337,1.255.722,1.88,1.087q4.806,2.816,9.612,5.637Q12.9,32.938,14,33.569c0,.028,0,.053,0,.081V44.522c0,.057-.02.121.037.17" fill="#efccc1"/>
            <path id="Контур_22365" data-name="Контур 22365" d="M13.97,45a.334.334,0,0,1-.073-.008.352.352,0,0,1-.243-.224c-.3-.416-.615-.852-.927-1.289l-.387-.54Q8.3,37.281,4.254,31.621l-4-5.6a.671.671,0,0,1-.21-.461.28.28,0,0,1,.28-.269c.079-.022.122.022.17.057.444.235.876.493,1.309.75L11.959,32.06q1.087.639,2.178,1.269a.278.278,0,0,1,.139.24l0,.081V44.522s0,.014,0,.03a.276.276,0,0,1-.059.35.361.361,0,0,1-.242.1M1.206,26.392l3.5,4.906Q8.75,36.956,12.8,42.618l.387.54.526.736V33.725c-.679-.394-1.36-.789-2.037-1.187L1.515,26.578l-.309-.185" fill="#7979dd"/>
            <path id="Контур_22366" data-name="Контур 22366" d="M14.029,44.692c-.057-.049-.037-.114-.037-.17V33.65a.549.549,0,0,1,0-.081q4.1-2.4,8.206-4.809,2.63-1.539,5.26-3.086a.961.961,0,0,1,.147-.069l.041.028q-.772,1.095-1.549,2.182-6,8.394-12,16.78l-.074.1" fill="#cab3f5"/>
            <path id="Контур_22367" data-name="Контур 22367" d="M14.029,44.97a.28.28,0,0,1-.182-.067.414.414,0,0,1-.137-.366V33.65a.909.909,0,0,1,.007-.121.28.28,0,0,1,.136-.2l2.221-1.3q2.991-1.753,5.984-3.508,2.63-1.54,5.26-3.087a1.039,1.039,0,0,1,.164-.079.322.322,0,0,1,.282.018.341.341,0,0,1,.139.194.309.309,0,0,1-.024.225q-.773,1.1-1.55,2.183L14.253,44.859a.281.281,0,0,1-.194.109l-.03,0m.245-11.241V43.878l11.6-16.225q.445-.621.886-1.245-2.21,1.3-4.415,2.591-2.989,1.757-5.984,3.508Z" fill="#7979dd"/>
            <path id="Контур_22368" data-name="Контур 22368" d="M13.992,30.88c-.066-.061-.041-.138-.041-.211V16.743c.012-.016.029-.028.041-.045V30.88Z" fill="#616792"/>
            <path id="Контур_22369" data-name="Контур 22369" d="M13.992,31.158a.284.284,0,0,1-.191-.075.448.448,0,0,1-.131-.386V16.743a.282.282,0,0,1,.056-.167c.008-.01.037-.043.046-.052a.271.271,0,0,1,.31-.093.281.281,0,0,1,.189.267V30.88a.279.279,0,0,1-.17.255.274.274,0,0,1-.111.023m.179-.467-.072.077.127,0a.13.13,0,0,0-.036-.08Z" fill="#7979dd"/>
          </g>
        </g>
      </g>
      <path id="Color_Overlay" data-name="Color Overlay" d="M960.9,1048.992a.353.353,0,0,1-.243-.224c-.3-.416-.616-.852-.927-1.289l-.387-.541q-4.046-5.656-8.086-11.318l-4-5.6a.676.676,0,0,1-.211-.462.279.279,0,0,1,.28-.269c.08-.023.122.022.17.057.444.235.877.493,1.31.751l10.155,5.959q1.017.6,2.037,1.187l2.08-1.219q2.99-1.752,5.984-3.507,2.63-1.54,5.26-3.088a1.12,1.12,0,0,1,.164-.078.317.317,0,0,1,.282.018.339.339,0,0,1,.139.194.3.3,0,0,1-.024.224q-.774,1.1-1.55,2.184l-12.077,16.883a.262.262,0,0,1-.055.055.354.354,0,0,1-.228.087A.346.346,0,0,1,960.9,1048.992Zm.063-13.755a.249.249,0,0,1-.068-.017,2.894,2.894,0,0,1-.587-.307c-.066-.041-.131-.083-.2-.121q-6.434-3.773-12.863-7.553c-.023-.011-.052-.031-.081-.05a.358.358,0,0,1-.16-.255l0-.08a.275.275,0,0,1,.044-.149,7.665,7.665,0,0,1,.5-.862c.066-.1.131-.207.2-.311q3.931-6.484,7.869-12.965l.736-1.216q2.138-3.528,4.281-7.052a.457.457,0,0,1,.136-.169.315.315,0,0,1,.284-.128.327.327,0,0,1,.281.258l.555.9,12.939,21.328a.835.835,0,0,1,.145.273.344.344,0,0,1,.014.287.365.365,0,0,1-.263.2c-.609.365-1.247.737-1.884,1.111l-1.976,1.161q-4.77,2.8-9.538,5.594a.524.524,0,0,1-.308.121A.42.42,0,0,1,960.961,1035.238Z" fill="#eb723b" style="mix-blend-mode: darken;isolation: isolate"/>
    </g>
  </g>
</svg>
