<svg xmlns="http://www.w3.org/2000/svg" xmlns:xlink="http://www.w3.org/1999/xlink" width="32" height="20" viewBox="0 0 32 20">
  <defs>
    <clipPath id="clip-path">
      <rect id="Прямоугольник_130" data-name="Прямоугольник 130" width="32" height="20" fill="none"/>
    </clipPath>
  </defs>
  <g id="f2" transform="translate(-643 -1784)" opacity="0.8">
    <g id="Vector_Smart_Object" data-name="Vector Smart Object" transform="translate(643 1784)">
      <rect id="Прямоугольник_129" data-name="Прямоугольник 129" width="8.653" height="15.724" transform="translate(11.673 2.138)" fill="#f16522"/>
      <g id="Сгруппировать_7638" data-name="Сгруппировать 7638">
        <g id="Сгруппировать_7637" data-name="Сгруппировать 7637" clip-path="url(#clip-path)">
          <path id="Контур_22396" data-name="Контур 22396" d="M12.223,10A10.023,10.023,0,0,1,16,2.138,9.776,9.776,0,0,0,9.888,0,9.945,9.945,0,0,0,0,10,9.945,9.945,0,0,0,9.888,20,9.777,9.777,0,0,0,16,17.862,10.024,10.024,0,0,1,12.223,10" fill="#e41b24"/>
          <path id="Контур_22397" data-name="Контур 22397" d="M32,10a9.944,9.944,0,0,1-9.889,10A9.774,9.774,0,0,1,16,17.861,10.072,10.072,0,0,0,16,2.138,9.776,9.776,0,0,1,22.111,0,9.944,9.944,0,0,1,32,10m-.944,6.2v-.322h.129v-.065h-.327v.065h.128V16.2Zm.635,0v-.388h-.1l-.115.267-.115-.267h-.1V16.2h.07V15.9l.108.253h.073l.108-.253V16.2Z" fill="#f89e1c"/>
        </g>
      </g>
    </g>
    <path id="Color_Overlay" data-name="Color Overlay" d="M659,1801.861h0a9.78,9.78,0,0,1-6.112,2.137,10,10,0,0,1,0-20,9.781,9.781,0,0,1,6.112,2.138h0a9.781,9.781,0,0,1,6.111-2.137,10,10,0,0,1,0,20A9.776,9.776,0,0,1,659,1801.861Zm15.62-1.665v-.293l-.109.253h-.073l-.108-.253v.293h-.07v-.388h.1l.115.266.115-.266h.1v.388Zm-.635,0v-.322h-.129v-.066h.328v.066h-.129v.322Z" fill="#2e2e33" style="mix-blend-mode: color;isolation: isolate"/>
  </g>
</svg>
