<svg xmlns="http://www.w3.org/2000/svg" xmlns:xlink="http://www.w3.org/1999/xlink" width="42" height="17" viewBox="0 0 42 17">
  <defs>
    <clipPath id="clip-path">
      <rect id="Прямоугольник_133" data-name="Прямоугольник 133" width="42" height="17" fill="none"/>
    </clipPath>
  </defs>
  <g id="f3" transform="translate(-685 -1786)" opacity="0.502">
    <g id="Vector_Smart_Object" data-name="Vector Smart Object" transform="translate(685 1786)">
      <g id="Сгруппировать_7642" data-name="Сгруппировать 7642">
        <g id="Сгруппировать_7641" data-name="Сгруппировать 7641" clip-path="url(#clip-path)">
          <path id="Контур_22400" data-name="Контур 22400" d="M7.674,2.192a2.6,2.6,0,0,1-2.067.962,2.859,2.859,0,0,1,.738-2.111A3.1,3.1,0,0,1,8.4,0a3.042,3.042,0,0,1-.722,2.192m.714,1.116c-1.14-.065-2.117.639-2.658.639s-1.378-.607-2.281-.59A3.377,3.377,0,0,0,.586,5.071c-1.231,2.087-.32,5.176.87,6.874.582.841,1.28,1.763,2.2,1.731.87-.032,1.214-.558,2.264-.558s1.362.558,2.281.542c.952-.016,1.551-.841,2.133-1.682a7.329,7.329,0,0,0,.952-1.933A3.054,3.054,0,0,1,9.43,7.271a3.109,3.109,0,0,1,1.5-2.6A3.267,3.267,0,0,0,8.388,3.308M14.976.962V13.571h1.985V9.26H19.71A4.032,4.032,0,0,0,23.984,5.1,3.984,3.984,0,0,0,19.775.962Zm1.985,1.65H19.25c1.723,0,2.707.906,2.707,2.5s-.984,2.507-2.716,2.507H16.961ZM27.61,13.668a3.3,3.3,0,0,0,2.929-1.609h.041v1.512h1.838V7.295c0-1.82-1.477-2.992-3.749-2.992C26.56,4.3,25,5.491,24.944,7.125h1.788a1.741,1.741,0,0,1,1.879-1.286c1.214,0,1.9.558,1.9,1.585v.7l-2.478.146c-2.305.137-3.552,1.068-3.552,2.685,0,1.634,1.288,2.717,3.134,2.717m.533-1.5c-1.058,0-1.731-.5-1.731-1.27,0-.793.648-1.254,1.887-1.326l2.207-.137v.712a2.147,2.147,0,0,1-2.363,2.022M34.871,17c1.936,0,2.847-.728,3.643-2.936L42,4.424H39.982l-2.338,7.449H37.6L35.264,4.424H33.189L36.552,13.6l-.18.558a1.574,1.574,0,0,1-1.674,1.31c-.156,0-.459-.016-.582-.032v1.512a5.546,5.546,0,0,0,.755.049"/>
        </g>
      </g>
    </g>
    <path id="Color_Overlay" data-name="Color Overlay" d="M719.116,1802.951v-1.512c.122.016.427.032.582.032a1.574,1.574,0,0,0,1.673-1.31l.181-.558-3.364-9.18h2.076l2.338,7.449h.04l2.338-7.449H727l-3.487,9.641c-.8,2.208-1.707,2.936-3.643,2.936A5.533,5.533,0,0,1,719.116,1802.951Zm-32.661-5.006c-1.19-1.7-2.1-4.788-.869-6.875a3.377,3.377,0,0,1,2.863-1.714c.9-.016,1.732.59,2.281.59s1.518-.7,2.659-.639a3.269,3.269,0,0,1,2.543,1.359,3.108,3.108,0,0,0-1.5,2.6,3.054,3.054,0,0,0,1.854,2.774,7.306,7.306,0,0,1-.952,1.932c-.582.842-1.181,1.667-2.133,1.683-.919.016-1.222-.542-2.281-.542s-1.4.526-2.264.558h-.047C687.712,1799.677,687.028,1798.771,686.455,1797.945Zm23.021-1c0-1.617,1.247-2.547,3.552-2.685l2.478-.146v-.7c0-1.027-.681-1.585-1.9-1.585a1.742,1.742,0,0,0-1.879,1.286h-1.788c.058-1.634,1.616-2.823,3.725-2.823,2.273,0,3.749,1.173,3.749,2.993v6.276H715.58v-1.513h-.041a3.294,3.294,0,0,1-2.929,1.61C710.764,1799.668,709.476,1798.583,709.476,1796.95Zm3.823-1.374c-1.239.072-1.887.534-1.887,1.326,0,.769.672,1.27,1.731,1.27a2.147,2.147,0,0,0,2.363-2.021v-.712Zm-13.324,4v-12.609h4.8a3.984,3.984,0,0,1,4.209,4.141,4.032,4.032,0,0,1-4.275,4.157h-2.748v4.311Zm1.985-5.953h2.281c1.731,0,2.715-.914,2.715-2.507s-.985-2.5-2.707-2.5h-2.289Zm-11.354-4.464a2.858,2.858,0,0,1,.738-2.111A3.1,3.1,0,0,1,693.4,1786a3.041,3.041,0,0,1-.722,2.192,2.658,2.658,0,0,1-1.918.969C690.707,1789.16,690.656,1789.159,690.607,1789.154Z" fill="#2e2e33" style="mix-blend-mode: color;isolation: isolate"/>
  </g>
</svg>
