<?xml version="1.0" encoding="utf-8"?>
<!-- Generator: Adobe Illustrator 26.3.1, SVG Export Plug-In . SVG Version: 6.00 Build 0)  -->
<svg version="1.1" id="Layer_1" xmlns="http://www.w3.org/2000/svg" xmlns:xlink="http://www.w3.org/1999/xlink" x="0px" y="0px"
	 viewBox="0 0 190.43 50.76" style="enable-background:new 0 0 190.43 50.76;" xml:space="preserve">
<style type="text/css">
	.st0{fill:url(#SVGID_1_);}
	.st1{fill:#2E2E33;}
	.st2{fill:url(#SVGID_00000138572671608216782560000006480850892550788279_);}
	.st3{fill:url(#SVGID_00000173135078298247983850000018000445532375351477_);}
</style>
<g>
	
		<linearGradient id="SVGID_1_" gradientUnits="userSpaceOnUse" x1="29.8182" y1="4.3402" x2="0.3869" y2="39.4147" gradientTransform="matrix(1 0 0 -1 0 53.3)">
		<stop  offset="0.4867" style="stop-color:#EB723B"/>
		<stop  offset="1" style="stop-color:#FF3533"/>
	</linearGradient>
	<path class="st0" d="M35.17,34.51l7.03,4.06l0,0l-8.79,5.08l-3.52,2.03l-8.79,5.08l-8.79-5.08l-3.52-2.03L0,38.57V28.42v-4.06
		V14.21l7.03-4.06v8.12v6.09v2.21v1.85v6.09l5.27,3.05l3.52,2.03l5.27,3.05l5.27-3.05l3.52-2.03L35.17,34.51z"/>
	<g>
		<path class="st1" d="M56.02,21.98c2.02,0,3.57,1.06,4.22,2.7h3.72c-0.74-3.63-3.79-6.15-7.94-6.15c-4.84,0-8.25,3.41-8.25,8.07
			s3.41,8.07,8.25,8.07c4.16,0,7.2-2.51,7.94-6.14h-3.72c-0.65,1.64-2.2,2.7-4.22,2.7c-2.7,0-4.53-1.92-4.53-4.62
			C51.49,23.91,53.32,21.98,56.02,21.98z"/>
		<path class="st1" d="M74.11,18.54c-4.84,0-8.26,3.41-8.26,8.07s3.41,8.07,8.26,8.07s8.25-3.41,8.25-8.07S78.95,18.54,74.11,18.54z
			 M74.11,31.23c-2.7,0-4.53-1.92-4.53-4.62s1.83-4.62,4.53-4.62c2.7,0,4.5,1.92,4.5,4.62S76.81,31.23,74.11,31.23z"/>
		<path class="st1" d="M87.1,12.02c-1.43,0-2.45,1.06-2.45,2.48c0,1.43,1.02,2.45,2.45,2.45s2.45-1.02,2.45-2.45
			C89.55,13.08,88.53,12.02,87.1,12.02z"/>
		<rect x="85.24" y="18.94" class="st1" width="3.69" height="15.33"/>
		<path class="st1" d="M100.06,18.54c-4.53,0-7.57,2.64-7.57,7.76v7.98h3.69V26.3c0-2.92,1.55-4.31,3.88-4.31s3.88,1.4,3.88,4.31
			v7.98h3.69V26.3C107.63,21.15,104.59,18.54,100.06,18.54z"/>
		<path class="st1" d="M137.42,18.54c-4.84,0-8.25,3.41-8.25,8.07s3.41,8.07,8.25,8.07s8.26-3.41,8.26-8.07
			S142.27,18.54,137.42,18.54z M137.42,31.23c-2.7,0-4.53-1.92-4.53-4.62s1.83-4.62,4.53-4.62s4.5,1.92,4.5,4.62
			S140.12,31.23,137.42,31.23z"/>
		<path class="st1" d="M119,18.54c-1.73,0-3.29,0.44-4.56,1.22v-7.52h-3.69v14.37l0,0l0,0c0,4.66,3.41,8.07,8.25,8.07
			s8.26-3.41,8.26-8.07S123.84,18.54,119,18.54z M119,31.23c-2.7,0-4.53-1.92-4.53-4.62s1.83-4.62,4.53-4.62s4.5,1.92,4.5,4.62
			S121.7,31.23,119,31.23z"/>
		<path class="st1" d="M155.89,18.54c-4.84,0-8.25,3.41-8.25,8.07s3.41,8.07,8.25,8.07s8.26-3.41,8.26-8.07
			S160.73,18.54,155.89,18.54z M155.89,31.23c-2.7,0-4.53-1.92-4.53-4.62s1.83-4.62,4.53-4.62c2.7,0,4.5,1.92,4.5,4.62
			S158.59,31.23,155.89,31.23z"/>
		<path class="st1" d="M173.11,25.03c-1.64-0.22-3.04-0.4-3.04-1.58c0-0.9,0.81-1.68,2.42-1.68c1.46,0,2.33,0.65,2.42,1.58h3.66
			c-0.09-2.7-2.39-4.81-6.14-4.81c-3.69,0-6.08,2.05-6.08,5.18c0,3.76,3.48,4.16,5.83,4.47c1.64,0.22,3.01,0.37,3.01,1.55
			c0,0.93-0.81,1.71-2.7,1.71c-1.8,0-2.7-0.68-2.73-1.71h-3.72c0.09,2.85,2.54,4.93,6.46,4.93s6.42-2.05,6.42-5.15
			C178.92,25.71,175.16,25.3,173.11,25.03z"/>
		<path class="st1" d="M190.42,22.29v-3.35h-4.07v-5.43h-3.69v5.43h-2.42v3.35h2.42v6.08c0,4.25,2.54,6.3,6.27,6.3l0,0h1.5v-3.44
			h-1.5l0,0c-1.52,0-2.58-0.81-2.58-2.86v-6.08L190.42,22.29L190.42,22.29z"/>
	</g>
	
		<linearGradient id="SVGID_00000129909130733235403270000002772438924418949002_" gradientUnits="userSpaceOnUse" x1="23.1833" y1="15.0973" x2="16.4811" y2="53.1062" gradientTransform="matrix(1 0 0 -1 0 53.3)">
		<stop  offset="0" style="stop-color:#FF3533"/>
		<stop  offset="0.4232" style="stop-color:#EB723B"/>
	</linearGradient>
	<polygon style="fill:url(#SVGID_00000129909130733235403270000002772438924418949002_);" points="28.13,18.27 24.62,16.24 
		21.1,14.21 21.1,22.33 24.62,24.36 24.62,28.42 21.1,30.45 17.58,28.42 17.58,27.05 17.58,26.39 17.58,24.36 17.58,16.24 
		17.58,6.81 17.58,0 10.55,4.06 10.55,20.3 10.55,24.36 10.55,27.05 10.55,28.42 10.55,32.48 14.07,34.51 17.58,36.54 21.1,38.57 
		24.62,36.54 28.13,34.51 31.65,32.48 31.65,28.42 31.65,24.36 31.65,20.3 	"/>
	
		<linearGradient id="SVGID_00000126288640809325587260000017013325280856039828_" gradientUnits="userSpaceOnUse" x1="19.3138" y1="46.3608" x2="41.8598" y2="38.1549" gradientTransform="matrix(1 0 0 -1 0 53.3)">
		<stop  offset="0" style="stop-color:#FF3533"/>
		<stop  offset="0.4648" style="stop-color:#EB723B"/>
	</linearGradient>
	<polygon style="fill:url(#SVGID_00000126288640809325587260000017013325280856039828_);" points="33.41,9.14 29.89,7.11 21.1,2.03 
		21.1,10.15 26.38,13.2 29.89,15.23 35.17,18.27 42.2,14.21 42.2,14.21 	"/>
</g>
</svg>
