<svg id="p3" xmlns="http://www.w3.org/2000/svg" xmlns:xlink="http://www.w3.org/1999/xlink" width="40" height="47" viewBox="0 0 40 47">
  <defs>
    <clipPath id="clip-path">
      <rect id="Прямоугольник_148" data-name="Прямоугольник 148" width="40" height="47" fill="none"/>
    </clipPath>
  </defs>
  <path id="Контур_22489" data-name="Контур 22489" d="M20,0,0,11.75v23.5L20,47,40,35.25V11.75Z" fill="#025cb6"/>
  <g id="Сгруппировать_7770" data-name="Сгруппировать 7770">
    <g id="Сгруппировать_7769" data-name="Сгруппировать 7769" clip-path="url(#clip-path)">
      <path id="Контур_22490" data-name="Контур 22490" d="M19.969,11.715a.609.609,0,0,0,.618-.512.65.65,0,0,0-.381-.721c-.056-.027-.139,0-.17-.079H19.9c-.031.085-.114.051-.171.077a.657.657,0,0,0-.372.757.607.607,0,0,0,.61.479" fill="#fff"/>
      <path id="Контур_22491" data-name="Контур 22491" d="M33.457,23.578v-.343c-.1-.019-.117-.129-.179-.191a.473.473,0,0,0-.711.622.456.456,0,0,0,.657.083c.078-.056.106-.185.233-.171Z" fill="#fff"/>
      <path id="Контур_22492" data-name="Контур 22492" d="M17.29,20.9a2.194,2.194,0,1,0-2.169-2.19A2.182,2.182,0,0,0,17.29,20.9" fill="#fff"/>
      <path id="Контур_22493" data-name="Контур 22493" d="M22.642,26.129a2.195,2.195,0,1,0,2.179,2.189,2.194,2.194,0,0,0-2.179-2.189" fill="#fff"/>
      <path id="Контур_22494" data-name="Контур 22494" d="M23.261,23.47a2.15,2.15,0,1,0,4.3.129h0a2.132,2.132,0,0,0-2.39-2.212,2.089,2.089,0,0,0-1.9,2.084" fill="#fff"/>
      <path id="Контур_22495" data-name="Контур 22495" d="M17.221,26.1a2.195,2.195,0,1,0,2.15,2.2,2.157,2.157,0,0,0-2.15-2.2" fill="#fff"/>
      <path id="Контур_22496" data-name="Контур 22496" d="M22.694,20.925a2.16,2.16,0,0,0,2.182-2.17,2.155,2.155,0,1,0-4.308-.014,2.15,2.15,0,0,0,2.127,2.183" fill="#fff"/>
      <path id="Контур_22497" data-name="Контур 22497" d="M13.762,25.507h0Z" fill="#fff"/>
      <path id="Контур_22498" data-name="Контур 22498" d="M15.792,25.231h0Z" fill="#fff"/>
      <path id="Контур_22499" data-name="Контур 22499" d="M19.962,31.118a1,1,0,0,0,.014,2,1,1,0,0,0,.979-1.007.986.986,0,0,0-.992-.991" fill="#fff"/>
      <path id="Контур_22500" data-name="Контур 22500" d="M27.273,26.81a1,1,0,0,0-.965,1.02.982.982,0,1,0,1.963-.03,1,1,0,0,0-1-.99" fill="#fff"/>
      <path id="Контур_22501" data-name="Контур 22501" d="M13.633,27.836a.984.984,0,1,0-1.967-.042.985.985,0,0,0,.962,1.015h0a.987.987,0,0,0,1-.974" fill="#fff"/>
      <path id="Контур_22502" data-name="Контур 22502" d="M19.966,15.909a.989.989,0,0,0,.992-.988,1.016,1.016,0,0,0-.986-1,1,1,0,0,0-.007,1.99" fill="#fff"/>
      <path id="Контур_22503" data-name="Контур 22503" d="M27.3,18.219a1,1,0,1,0,.972,1.006h0a.981.981,0,0,0-.973-1.006" fill="#fff"/>
      <path id="Контур_22504" data-name="Контур 22504" d="M12.652,20.215a1,1,0,1,0-.984-1,1,1,0,0,0,.984,1" fill="#fff"/>
      <path id="Контур_22505" data-name="Контур 22505" d="M14.989,31.833h0a.806.806,0,0,0-.812.783.8.8,0,1,0,.812-.783" fill="#fff"/>
      <path id="Контур_22506" data-name="Контур 22506" d="M30.227,24.167a.809.809,0,0,0,0-1.619.809.809,0,0,0,0,1.618Z" fill="#fff"/>
      <path id="Контур_22507" data-name="Контур 22507" d="M25.242,31.672a.809.809,0,0,0,.01,1.619.81.81,0,0,0-.01-1.619" fill="#fff"/>
      <path id="Контур_22508" data-name="Контур 22508" d="M24.921,15.194a.807.807,0,0,0,.095-1.611.807.807,0,0,0-.095,1.611" fill="#fff"/>
      <path id="Контур_22509" data-name="Контур 22509" d="M14.691,15.354h0a.8.8,0,1,0,.016-1.6.786.786,0,0,0-.8.789.809.809,0,0,0,.787.814" fill="#fff"/>
      <path id="Контур_22510" data-name="Контур 22510" d="M9.71,22.876a.793.793,0,0,0-.8.79.8.8,0,0,0,.783.814h0a.794.794,0,0,0,.8-.8.786.786,0,0,0-.782-.809" fill="#fff"/>
      <path id="Контур_22511" data-name="Контур 22511" d="M19.955,35.306a.645.645,0,1,0,.649.64h0a.636.636,0,0,0-.649-.64" fill="#fff"/>
      <path id="Контур_22512" data-name="Контур 22512" d="M30.562,29.081a.65.65,0,0,0-.032,1.3.627.627,0,0,0,.651-.631.636.636,0,0,0-.619-.668" fill="#fff"/>
      <path id="Контур_22513" data-name="Контур 22513" d="M30.554,17.944a.648.648,0,0,0-.014-1.295.649.649,0,0,0-.616.673.64.64,0,0,0,.63.622" fill="#fff"/>
      <path id="Контур_22514" data-name="Контур 22514" d="M9.4,17.941a.635.635,0,0,0,.612-.639.646.646,0,0,0-.641-.651.633.633,0,0,0-.606.644h0a.622.622,0,0,0,.634.647" fill="#fff"/>
      <path id="Контур_22515" data-name="Контур 22515" d="M9.381,29.086h0a.633.633,0,0,0-.622.668.627.627,0,1,0,1.252-.041.633.633,0,0,0-.629-.626" fill="#fff"/>
      <path id="Контур_22516" data-name="Контур 22516" d="M13.606,34.53a.478.478,0,0,0-.466.483.473.473,0,0,0,.471.478.49.49,0,0,0,.475-.482.5.5,0,0,0-.481-.479" fill="#fff"/>
      <path id="Контур_22517" data-name="Контур 22517" d="M26.578,34.388a.484.484,0,0,0-.477.476.473.473,0,1,0,.947.008.488.488,0,0,0-.47-.483" fill="#fff"/>
      <path id="Контур_22518" data-name="Контур 22518" d="M26.284,12.5a.474.474,0,0,0,.507-.433.462.462,0,0,0-.417-.52.479.479,0,0,0-.091.953" fill="#fff"/>
      <path id="Контур_22519" data-name="Контур 22519" d="M13.357,12.638a.479.479,0,0,0,.475-.468.466.466,0,0,0-.463-.474.476.476,0,0,0-.48.461.49.49,0,0,0,.467.481" fill="#fff"/>
      <path id="Контур_22520" data-name="Контур 22520" d="M6.991,23.186a.45.45,0,0,0-.448.483.462.462,0,0,0,.472.464h0a.474.474,0,0,0-.024-.947" fill="#fff"/>
      <path id="Контур_22521" data-name="Контур 22521" d="M15.941,25.111a.438.438,0,0,0,.246-.3h0a1.58,1.58,0,0,0,.413-.725,2.243,2.243,0,0,0-.514-2.124,2.153,2.153,0,0,0-2.151-.571,2.049,2.049,0,0,0-1.544,1.927,2.1,2.1,0,0,0,1.217,2.119v0h0a.179.179,0,0,0,.15.065h.007a1.916,1.916,0,0,0,2.02-.272h0a.2.2,0,0,0,.151-.121" fill="#fff"/>
    </g>
  </g>
</svg>
