<svg id="p4" xmlns="http://www.w3.org/2000/svg" xmlns:xlink="http://www.w3.org/1999/xlink" width="40" height="47" viewBox="0 0 40 47">
  <defs>
    <clipPath id="clip-path">
      <rect id="Прямоугольник_149" data-name="Прямоугольник 149" width="40" height="47" fill="none"/>
    </clipPath>
  </defs>
  <path id="Контур_22522" data-name="Контур 22522" d="M20,0,0,11.75v23.5L20,47,40,35.25V11.75Z"/>
  <g id="Сгруппировать_7772" data-name="Сгруппировать 7772">
    <g id="Сгруппировать_7771" data-name="Сгруппировать 7771" clip-path="url(#clip-path)">
      <path id="Контур_22523" data-name="Контур 22523" d="M6.543,33.7a.663.663,0,0,1,.191-.3q1.674-1.7,3.345-3.4l.818-.832a.876.876,0,0,1,.651-.276q1.82,0,3.64,0l.06,0c0,.028.021.038.041.048l.79.422.874.465,1.232.654.911.484.91.484.893.474,1.226.651.886.471,1.226.651c.272.144.546.284.816.432.052.029.119.042.152.1H6.919A1.1,1.1,0,0,1,6.8,34.2a.457.457,0,0,1-.262-.347Z" fill="#c039f5"/>
      <path id="Контур_22524" data-name="Контур 22524" d="M25.206,34.233c-.033-.06-.1-.074-.152-.1-.27-.147-.544-.288-.816-.432l-1.226-.651-.887-.471L20.9,31.926l-.893-.474-.91-.484-.91-.484-1.232-.654-.874-.465-.79-.422c-.02-.011-.041-.02-.041-.048l.087,0H25.784l.081,0c0,.035.03.042.053.054l.808.432.91.484.892.474.91.484.923.49.877.46c-.1.107-.207.215-.312.321-.417.424-.837.845-1.252,1.271-.2.2-.39.4-.587.6a.866.866,0,0,1-.5.257c-.006,0-.011.007-.017.01H25.206Z" fill="#9866e6"/>
      <path id="Контур_22525" data-name="Контур 22525" d="M6.543,21.145a.579.579,0,0,1,.141-.251.391.391,0,0,1,.265-.116c.362,0,.725,0,1.088,0a.068.068,0,0,0,.046.068c.13.071.26.142.391.212l.863.459,1.256.667.857.456,1.244.661.9.477,1.2.639.911.484.91.484.818.43c.161.085.321.172.481.258.017.009.039.015.039.041l-.074,0q-3.137,0-6.274,0a.99.99,0,0,1-.75-.318Q9.372,24.284,7.88,22.773c-.376-.382-.75-.766-1.127-1.147a.722.722,0,0,1-.211-.317Z" fill="#9866e6"/>
      <path id="Контур_22526" data-name="Контур 22526" d="M11.629,18.106l-.08,0H7.037a.434.434,0,0,1-.486-.349s-.006-.006-.009-.009v-.178a.788.788,0,0,1,.225-.323c.364-.367.726-.738,1.088-1.107.017-.018.036-.034.054-.051l1.147.61.9.481,1.066.563q.271.144.54.289c.028.015.065.026.061.071Z" fill="#7683db"/>
      <path id="Контур_22527" data-name="Контур 22527" d="M10.689,13.262a1.2,1.2,0,0,1,.749-.489,1.145,1.145,0,0,1,.121-.006H32.985a.432.432,0,0,1,.437.279.446.446,0,0,1-.114.506c-.207.209-.409.423-.62.628-.133.129-.265.259-.393.392-1.044,1.086-2.111,2.149-3.161,3.229a.976.976,0,0,1-.739.311q-4.305-.005-8.611,0l-.081,0c0-.028-.021-.038-.041-.048l-.529-.282-.881-.468-1.232-.654-.91-.484-.911-.484-.893-.475-.911-.484-.893-.474-.941-.5-.817-.43c-.026-.014-.054-.025-.057-.061Z" fill="#00c4bc"/>
      <path id="Контур_22528" data-name="Контур 22528" d="M17.954,26.115c0-.026-.022-.032-.039-.041-.16-.086-.32-.173-.481-.258l-.818-.43L15.7,24.9l-.911-.484-1.2-.639-.9-.477-1.244-.661-.857-.456-1.256-.667-.863-.459c-.131-.07-.26-.142-.391-.212-.027-.015-.049-.033-.046-.068l.074,0h8.6a.179.179,0,0,1,.08.007c0,.03.02.043.043.055l.778.416.916.487.91.484.893.474.91.484.893.474,1.22.648.892.474,1.25.663c.272.144.546.284.817.431.1.057.211.11.316.167.03.016.07.027.067.075l-.074,0h-8.6l-.067,0Z" fill="#7683db"/>
      <path id="Контур_22529" data-name="Контур 22529" d="M26.7,26.115c0-.048-.037-.059-.067-.075-.1-.057-.211-.11-.316-.167-.271-.147-.545-.287-.817-.431l-1.25-.663-.892-.474-1.22-.648-.893-.474-.91-.484-.893-.474-.91-.484-.917-.487-.778-.416c-.023-.012-.042-.026-.043-.055.056,0,.112-.006.168-.006h8c.027,0,.054,0,.081,0,0,.03.012.045.036.058l.487.261.9.478,1.208.642.9.481,1.208.642.9.481,1.238.657.875.465a.234.234,0,0,0,.157.049,4.025,4.025,0,0,1,.41.431.41.41,0,0,1,.046.425.417.417,0,0,1-.346.268.639.639,0,0,1-.087,0H26.76l-.061,0Z" fill="#479fce"/>
      <path id="Контур_22530" data-name="Контур 22530" d="M10.689,13.262c0,.036.031.047.057.061l.817.43.941.5.893.474.91.484.893.475.911.484.91.484,1.232.654.881.468.529.282c.02.011.041.02.041.048-.025,0-.049,0-.074,0l-7.933,0-.067,0c0-.045-.033-.056-.061-.071q-.269-.146-.54-.289l-1.066-.563-.9-.48-1.147-.61c.018-.02.036-.04.055-.06l2.124-2.163.549-.562c.016-.016.033-.03.05-.045Z" fill="#479fce"/>
      <path id="Контур_22531" data-name="Контур 22531" d="M31.239,31.772l-.877-.46-.923-.489-.91-.484-.892-.474-.91-.484-.808-.432c-.023-.012-.052-.019-.053-.054l.067,0q3.531,0,7.062,0a.452.452,0,0,1,.46.481.447.447,0,0,1-.135.289q-.382.386-.761.774l-1.27,1.292c-.016.016-.033.031-.049.046Z" fill="#7683db"/>
      <path id="Контур_22532" data-name="Контур 22532" d="M32.963,24.991a.234.234,0,0,1-.157-.049l-.875-.465-1.238-.657-.9-.481L28.58,22.7l-.9-.481-1.208-.642-.9-.478-.487-.261c-.024-.013-.041-.028-.036-.058l1.4,0h2a.87.87,0,0,1,.647.269l3.851,3.921c.008.008.015.017.022.025Z" fill="#00c4bc"/>
    </g>
  </g>
</svg>
