<svg id="p5" xmlns="http://www.w3.org/2000/svg" xmlns:xlink="http://www.w3.org/1999/xlink" width="40" height="47" viewBox="0 0 40 47">
  <defs>
    <clipPath id="clip-path">
      <rect id="Прямоугольник_150" data-name="Прямоугольник 150" width="40" height="47" fill="none"/>
    </clipPath>
  </defs>
  <path id="Контур_22533" data-name="Контур 22533" d="M20,0,0,11.75v23.5L20,47,40,35.25V11.75Z" fill="#50ae95"/>
  <g id="Сгруппировать_7774" data-name="Сгруппировать 7774">
    <g id="Сгруппировать_7773" data-name="Сгруппировать 7773" clip-path="url(#clip-path)">
      <path id="Контур_22534" data-name="Контур 22534" d="M33.241,23.183a2.178,2.178,0,0,0-.553-.471,7.156,7.156,0,0,0-1.7-.745,23.537,23.537,0,0,0-3.781-.818c-1.441-.212-2.892-.332-4.348-.409-.1,0-.128-.038-.128-.139,0-1.02,0-2.039,0-3.058,0-.164,0-.164.156-.164h7.249c.142,0,.142,0,.142-.14V12.407c0-.168.009-.144-.147-.144Q25.07,12.248,20,12.253H9.881c-.147,0-.147,0-.147.144V17.23c0,.144,0,.144.142.144h7.283c.066,0,.123-.01.123.1,0,1.058,0,2.111,0,3.169,0,.063-.014.091-.08.091-.246.01-.491.024-.733.038-.808.048-1.611.115-2.415.207-.714.082-1.422.178-2.131.3a20.6,20.6,0,0,0-3.128.755,6.354,6.354,0,0,0-1.593.745,1.8,1.8,0,0,0-.525.515.771.771,0,0,0,0,.87,1.494,1.494,0,0,0,.279.322,4.186,4.186,0,0,0,1.134.673,14.539,14.539,0,0,0,2.6.789c.846.188,1.7.327,2.557.438.6.082,1.2.144,1.8.2.695.063,1.394.111,2.094.144.146.01.146.01.146.164V37.312c0,.192-.024.173.166.173H22.58c.18,0,.161.024.161-.164V26.9c0-.178-.033-.168.17-.178.619-.029,1.238-.072,1.857-.125.87-.077,1.735-.173,2.6-.3a25.307,25.307,0,0,0,3.11-.64,8.967,8.967,0,0,0,2.051-.8,2.482,2.482,0,0,0,.714-.567.8.8,0,0,0,0-1.1m-1.389.837a3.355,3.355,0,0,1-1.007.543,14.578,14.578,0,0,1-2.58.678c-.95.178-1.909.3-2.869.394-.822.082-1.645.135-2.472.178-1.167.067-2.334.072-3.5.067-1.262-.014-2.524-.058-3.781-.154A36.353,36.353,0,0,1,11.5,25.2,12.936,12.936,0,0,1,8.965,24.5a3.656,3.656,0,0,1-.714-.385,1.329,1.329,0,0,1-.312-.3.544.544,0,0,1,0-.683,1.711,1.711,0,0,1,.619-.486,7.8,7.8,0,0,1,1.843-.654,26.147,26.147,0,0,1,3.45-.6c1.1-.13,2.2-.212,3.308-.265.1,0,.128.024.128.125,0,1.159,0,2.318,0,3.477,0,.106.019.144.137.154a45.1,45.1,0,0,0,4.7.034c.175-.01.345-.029.52-.034.076,0,.094-.034.094-.106,0-.471,0-.947,0-1.419V21.25c0-.091.024-.115.113-.115.959.048,1.923.115,2.878.216.931.1,1.862.221,2.779.4a12.225,12.225,0,0,1,2.717.789,2.815,2.815,0,0,1,.638.39.624.624,0,0,1-.009,1.087" fill="#fefefe"/>
    </g>
  </g>
</svg>
